<?xml version="1.0" encoding="utf-8"?>
<!-- Generator: Adobe Illustrator 18.1.0, SVG Export Plug-In . SVG Version: 6.00 Build 0)  -->
<svg version="1.1" id="Layer_1" xmlns="http://www.w3.org/2000/svg" xmlns:xlink="http://www.w3.org/1999/xlink" x="0px" y="0px"
	 viewBox="0 0 469.7 270.9" enable-background="new 0 0 469.7 270.9" xml:space="preserve">
<g>
	<g>
		<path fill="#FFFFFF" d="M0,84.4h34.4l-0.8,42.2h0.8c0.8-4,3-7.5,4.9-11l17-31.2h38.6l-30.4,47.3l33.7,49.9h-41l-16.8-29.4
			c-2.1-3.7-5.2-7.3-5.9-11.3h-0.8l0.8,40.7H0V84.4z"/>
		<path fill="#FFFFFF" d="M103.4,113.1h33.3v68.5h-33.3V113.1z"/>
		<path fill="#FFFFFF" d="M176.7,124.1h0.8c6.4-7.5,11.3-12.5,22.1-12.5c17,0,23.7,12.8,23.7,27.9v42.2h-33.3v-33.4
			c0-4,0-9.7-5.7-9.7c-5.5,0-5.5,5.7-5.5,9.7v33.4h-33.3v-68.5h32.5L176.7,124.1z"/>
		<path fill="#FFFFFF" d="M278.8,172.6H278c-6.1,6.4-11.5,10.6-20.9,10.6c-18.6,0-28.9-18.8-28.9-35.5c0-17.3,10.4-36.1,29.8-36.1
			c8.3,0,15.1,3,20,9.7h0.8l-1-8.1h32.6v68.5h-32.6L278.8,172.6z M269.9,157.1c6.3,0,8.9-5,8.9-10.3c0-5.3-3.6-9.2-8.9-9.2
			c-5.3,0-8.6,4.4-8.6,9.4C261.2,152.5,263.8,157.1,269.9,157.1"/>
		<path fill="#FFFFFF" d="M374.8,145.4c-3.5-2.1-5.9-3.7-10.2-3.7c-8.6,0-13,5.2-13,13.7v26.3h-33.3v-68.5h33.3l-0.8,9.2h0.8
			c5.9-9,12-11,23.2-10.7V145.4z"/>
		<polygon fill="#FFFFFF" points="382.6,77 415.8,77 415.8,138.5 416.6,138.5 419.3,132.7 429.6,113.1 468.4,113.1 443.3,146.7 
			469.7,181.6 430.5,181.6 416.6,156.5 415.8,156.5 415.8,181.6 382.6,181.6 		"/>
	</g>
	<g>
		<path fill="#FFFFFF" d="M136,113.2c0.7-3.2,1.4-6.3,1.9-9.5c0.5-3.2,1.1-6.4,1.5-9.5c0.8-6.4,1.3-12.8,1.4-19.1
			c0.1-3.2,0.1-6.4,0-9.6c-0.1-3.2-0.3-6.4-0.5-9.5c-0.2-3.2-0.7-6.3-1.1-9.5c-0.4-3.1-0.9-6.3-1.5-9.4l-1-4.6
			c-0.3-1.5-0.7-2.9-1.2-4.2c-0.5-1.3-1.1-2.4-1.8-3.3c-0.4-0.4-0.7-0.8-1.1-1.2l0,0c0.1,0.1-0.2-0.2,0.2,0.1l-0.1,0l-0.1-0.1
			l-0.2-0.2l-0.5-0.4c-0.4-0.3-0.4-0.2-0.6-0.4c-0.7-0.4-1.9-0.7-3-0.8c-1.1-0.1-2.4,0.1-3.6,0.4c-2.5,0.6-5,1.9-7,3.5
			c-0.5,0.4-1.1,0.9-1.4,1.2c-0.5,0.6-1.2,1.2-1.6,1.7c-0.8,1-1.7,2.1-2.5,3.3c-1.6,2.4-2.8,4.9-3.7,7.6c-1.8,5.4-2,11.2-0.5,16.6
			c0.7,2.4-0.7,4.8-3.1,5.4c-2.1,0.6-4.2-0.4-5.1-2.3l0-0.1c-3.2-6.4-6.4-12.7-10.3-18.2c-3.9-5.5-8.7-10.1-14.5-12.9
			c-0.7-0.4-1.5-0.7-2.2-1l-1.1-0.4c-0.5-0.2-0.6-0.2-0.9-0.3c-0.6-0.2-1.1-0.2-1.4-0.2c-0.3,0-0.2,0-0.1-0.1c0,0,0,0,0,0l0,0
			c0,0-0.1,0.1,0.1-0.1l0,0L69,26.2c0.1-0.1,0.1-0.2,0.1-0.1c0,0-0.1,0.1-0.1,0.3c-0.1,0.2-0.1,0.5-0.2,0.8l-0.1,0.5l-0.1,0.7
			c-0.3,1.9-0.3,3.3-0.4,4.9c-0.1,6.6,1.5,13.3,4.1,19.6c1.3,3.2,2.9,6.2,4.7,9.1c0.9,1.5,1.9,2.9,2.9,4.3c1.1,1.5,2.2,2.8,3.3,4.1
			c4.5,5.4,9.6,10.3,15.1,14.9c2.7,2.3,5.5,4.5,8.4,6.7l4.3,3.3l4.4,3.1c5.9,4.2,11.8,8.5,17.6,12.8c-6.4-3.5-12.7-7-19-10.6
			l-4.8-2.7l-4.6-2.9c-3.1-2-6.2-4-9.1-6.1c-6-4.3-11.7-9-16.9-14.4c-1.3-1.4-2.6-2.9-3.7-4.2c-1.2-1.5-2.4-3-3.5-4.6
			c-2.2-3.1-4.1-6.4-5.8-9.9c-3.3-6.9-5.4-14.6-5.5-22.5c-0.1-1.9,0.1-4.2,0.2-5.9l0.1-0.7l0.1-0.5l0.1-0.4c0.1-0.5,0.2-1.2,0.4-1.8
			c0.2-0.7,0.5-1.4,0.9-2.2c0.2-0.4,0.5-0.8,0.9-1.2l0.1-0.1l0.3-0.3l0.5-0.5c1.5-1.3,3.4-1.8,4.9-1.9c1.5-0.1,2.8,0.1,4,0.4
			c0.5,0.1,1.3,0.4,1.7,0.5l1.5,0.6c0.9,0.4,1.9,0.7,2.8,1.2c3.6,1.7,7,4,10,6.7c3,2.7,5.6,5.7,7.9,8.8c4.6,6.3,7.9,13,11.1,19.6
			l-8.3,3.1c-1.9-7.1-1.5-14.7,0.9-21.6c1.2-3.4,2.8-6.7,4.9-9.7c1-1.5,2.2-2.9,3.5-4.3c0.6-0.7,1.2-1.2,1.8-1.7
			c0.8-0.8,1.5-1.3,2.3-1.9c3.1-2.3,6.5-3.9,10.3-4.7c3.8-0.8,8.2-0.7,12.2,1.7c0.5,0.3,1.2,0.7,1.4,0.9l1.2,1
			c0.8,0.7,1.5,1.6,2.1,2.4c1.2,1.7,2,3.6,2.5,5.3c0.6,1.8,0.9,3.5,1.2,5.2l0.8,4.9c0.5,3.3,0.8,6.5,1.1,9.8
			c0.3,3.3,0.4,6.6,0.5,9.9c0.1,3.3,0,6.6-0.1,9.8c-0.1,3.3-0.3,6.5-0.7,9.8c-0.3,3.3-0.8,6.5-1.3,9.7c-0.5,3.2-1.2,6.4-1.9,9.6
			c-0.8,3.2-1.6,6.3-2.5,9.4C138.2,107.1,137.1,110.2,136,113.2z"/>
	</g>
</g>
<rect x="0" y="207.4" fill="#FFFFFF" width="469.7" height="63.5"/>
<g>
	<path fill="#69E8A8" d="M28.5,227.5v10.2h10.8c0.9,0,1.6,0.7,1.6,1.6c0,0.9-0.7,1.6-1.6,1.6H28.5V255c0,0.9-0.7,1.6-1.6,1.6
		c-0.9,0-1.6-0.7-1.6-1.6v-29.1c0-0.9,0.7-1.6,1.6-1.6h13.8c0.9,0,1.6,0.7,1.6,1.6c0,0.9-0.7,1.6-1.6,1.6H28.5z"/>
	<path fill="#69E8A8" d="M66.4,247.7V233c0-4.9,4-9,9-9c5,0,9,4.1,9,9v14.7c0,5-4,9-9,9C70.4,256.6,66.4,252.6,66.4,247.7z
		 M69.6,233v14.7c0,3.2,2.6,5.8,5.8,5.8c3.2,0,5.8-2.6,5.8-5.8V233c0-3.2-2.6-5.8-5.8-5.8C72.2,227.2,69.6,229.8,69.6,233z"/>
	<path fill="#69E8A8" d="M112.5,247.7v-22c0-0.9,0.7-1.6,1.6-1.6c0.9,0,1.6,0.7,1.6,1.6v22c0,3.2,2.6,5.7,5.8,5.7
		c3.2,0,5.8-2.6,5.8-5.7v-22c0-0.9,0.7-1.6,1.6-1.6c0.9,0,1.6,0.7,1.6,1.6v22c0,4.9-4,9-9,9C116.5,256.6,112.5,252.6,112.5,247.7z"
		/>
	<path fill="#69E8A8" d="M174.2,255.7l-11.8-23.4V255c0,0.9-0.7,1.6-1.6,1.6c-0.9,0-1.6-0.7-1.6-1.6v-29.4c0-0.9,0.8-1.6,1.6-1.6
		c0.6,0,1.2,0.4,1.4,0.9l11.8,23.4v-22.7c0-0.9,0.7-1.6,1.6-1.6c0.9,0,1.6,0.7,1.6,1.6V255c0,0.8-0.5,1.4-1.3,1.6
		c-0.1,0-0.2,0-0.4,0C175.1,256.6,174.5,256.3,174.2,255.7z"/>
	<path fill="#69E8A8" d="M207.7,256.3c-0.9,0-1.6-0.7-1.6-1.6v-28.9c0-0.9,0.7-1.6,1.6-1.6h6.7c5,0,9,4,9,9v14.1c0,5-4,9-9,9H207.7z
		 M209.3,253.1h5.1c3.2,0,5.8-2.6,5.8-5.8v-14.1c0-3.2-2.6-5.8-5.8-5.8h-5.1V253.1z"/>
	<path fill="#69E8A8" d="M268.3,256.6c-0.7,0-1.3-0.5-1.5-1.2l-2-6.6h-10.7l-2,6.6c-0.2,0.7-0.9,1.2-1.5,1.2c-0.9,0-1.9-1-1.5-2.1
		l8.9-29.4c0.2-0.7,0.9-1.1,1.6-1.1c0.7,0,1.3,0.5,1.5,1.1l8.9,29.4C270.1,255.5,269.4,256.6,268.3,256.6z M263.8,245.7l-4.4-14.5
		l-4.4,14.5H263.8z"/>
	<path fill="#69E8A8" d="M308,224.3c0.9,0,1.6,0.7,1.6,1.6c0,0.9-0.7,1.6-1.6,1.6h-6.1V255c0,0.9-0.7,1.6-1.6,1.6
		c-0.9,0-1.6-0.7-1.6-1.6v-27.5h-6.1c-0.9,0-1.6-0.7-1.6-1.6c0-0.9,0.7-1.6,1.6-1.6H308z"/>
	<path fill="#69E8A8" d="M348.5,254.7c0,0.9-0.7,1.6-1.6,1.6h-11.3c-0.9,0-1.6-0.7-1.6-1.6c0-0.9,0.7-1.6,1.6-1.6h4.1v-25.6h-4.1
		c-0.9,0-1.6-0.7-1.6-1.6c0-0.9,0.7-1.6,1.6-1.6h11.3c0.9,0,1.6,0.7,1.6,1.6c0,0.9-0.7,1.6-1.6,1.6h-4v25.6h4
		C347.8,253.1,348.5,253.8,348.5,254.7z"/>
	<path fill="#69E8A8" d="M375.4,247.7V233c0-4.9,4-9,9-9c5,0,9,4.1,9,9v14.7c0,5-4,9-9,9C379.4,256.6,375.4,252.6,375.4,247.7z
		 M378.6,233v14.7c0,3.2,2.6,5.8,5.8,5.8c3.2,0,5.8-2.6,5.8-5.8V233c0-3.2-2.6-5.8-5.8-5.8C381.1,227.2,378.6,229.8,378.6,233z"/>
	<path fill="#69E8A8" d="M436.4,255.7l-11.8-23.4V255c0,0.9-0.7,1.6-1.6,1.6c-0.9,0-1.6-0.7-1.6-1.6v-29.4c0-0.9,0.8-1.6,1.6-1.6
		c0.6,0,1.2,0.4,1.4,0.9l11.8,23.4v-22.7c0-0.9,0.7-1.6,1.6-1.6s1.6,0.7,1.6,1.6V255c0,0.8-0.5,1.4-1.3,1.6c-0.1,0-0.2,0-0.4,0
		C437.3,256.6,436.7,256.3,436.4,255.7z"/>
</g>
</svg>
