<?xml version="1.0" encoding="utf-8"?>
<!-- Generator: Adobe Illustrator 18.1.0, SVG Export Plug-In . SVG Version: 6.00 Build 0)  -->
<svg version="1.1" id="Layer_1" xmlns="http://www.w3.org/2000/svg" xmlns:xlink="http://www.w3.org/1999/xlink" x="0px" y="0px"
	 viewBox="0 0 1128 636" enable-background="new 0 0 1128 636" xml:space="preserve">
<g>
	<g>
		<path fill="#FFFFFF" d="M29.7,181.1h77.4l-1.7,94.7h1.7c1.7-9,6.7-16.8,11-24.6l38.2-70.1H243l-68.4,106.3l75.6,112.1h-92.1
			l-37.7-66.1c-4.6-8.4-11.6-16.5-13.3-25.5h-1.7l1.7,91.6H29.7V181.1z"/>
		<path fill="#FFFFFF" d="M262.1,245.7h74.8v153.9h-74.8V245.7z"/>
		<path fill="#FFFFFF" d="M426.7,270.3h1.7c14.5-16.8,25.5-28.1,49.6-28.1c38.2,0,53.3,28.7,53.3,62.6v94.7h-74.8v-75
			c0-9,0-21.7-12.7-21.7c-12.5,0-12.5,12.7-12.5,21.7v75h-74.8V245.7h73L426.7,270.3z"/>
		<path fill="#FFFFFF" d="M656.2,379.2h-1.7c-13.6,14.5-25.8,23.8-46.9,23.8c-41.7,0-64.9-42.3-64.9-79.7
			c0-38.8,23.5-81.1,66.9-81.1c18.5,0,33.9,6.7,44.9,21.7h1.7l-2.3-18.3h73.3v153.9h-73.3L656.2,379.2z M636.2,344.5
			c14.2,0,20-11.3,20-23.2c0-11.9-8.1-20.6-20-20.6c-11.9,0-19.4,9.9-19.4,21.1C616.8,334,622.6,344.5,636.2,344.5"/>
		<path fill="#FFFFFF" d="M872,318.1c-7.8-4.6-13.3-8.4-22.9-8.4c-19.4,0-29.3,11.6-29.3,30.7v59.1h-74.8V245.7h74.8l-1.7,20.6h1.7
			c13.3-20.3,26.9-24.6,52.2-24.1V318.1z"/>
		<polygon fill="#FFFFFF" points="889.4,164.5 964.2,164.5 964.2,302.8 965.9,302.8 972,289.7 995.2,245.7 1082.4,245.7 1025.9,321 
			1085.3,399.5 997.2,399.5 965.9,343 964.2,343 964.2,399.5 889.4,399.5 		"/>
	</g>
	<g>
		<path fill="#FFFFFF" d="M335.4,245.8c1.6-7.1,3.1-14.2,4.3-21.3c1.2-7.1,2.4-14.3,3.3-21.4c1.7-14.3,2.9-28.7,3.2-43
			c0.1-7.2,0.2-14.3-0.1-21.5c-0.2-7.2-0.6-14.3-1.2-21.4c-0.6-7.1-1.5-14.2-2.4-21.3c-0.9-7.1-2.1-14.1-3.5-21.1l-2.2-10.4
			c-0.8-3.3-1.6-6.5-2.7-9.4c-1.1-2.9-2.4-5.4-4-7.5c-0.8-1-1.6-1.9-2.5-2.7l0,0c0.2,0.2-0.5-0.4,0.4,0.3l-0.1-0.1l-0.3-0.2
			l-0.5-0.4l-1.1-0.8c-0.9-0.7-1-0.5-1.4-0.8c-1.6-0.9-4.2-1.7-6.7-1.8c-2.6-0.2-5.3,0.1-8.1,0.8c-5.6,1.3-11.2,4.2-15.8,7.9
			c-1.1,0.8-2.4,2.1-3.2,2.8c-1.2,1.3-2.7,2.7-3.6,3.8c-1.9,2.2-3.9,4.7-5.6,7.4c-3.5,5.3-6.4,11-8.3,17.1
			c-4,12.1-4.5,25.2-1.2,37.2c1.5,5.3-1.6,10.8-6.9,12.2c-4.7,1.3-9.5-1-11.5-5.1l-0.1-0.1c-7.2-14.4-14.3-28.6-23.1-41
			c-8.8-12.4-19.5-22.6-32.6-29c-1.6-0.9-3.3-1.5-5-2.2l-2.4-1c-1.2-0.4-1.3-0.5-2.1-0.7c-1.3-0.4-2.4-0.5-3.1-0.5
			c-0.7,0-0.6,0.1-0.3-0.2c0,0,0.1,0,0.1-0.1l0,0c0.1-0.1-0.2,0.2,0.2-0.2l-0.1,0.1l-0.3,0.3c0.2-0.2,0.2-0.4,0.2-0.3
			c0,0-0.2,0.3-0.3,0.7c-0.1,0.4-0.3,1.1-0.4,1.9l-0.2,1.1l-0.2,1.5c-0.6,4.3-0.8,7.3-0.8,11.1c-0.2,14.9,3.4,29.8,9.2,44
			c2.9,7.1,6.5,14,10.6,20.5c2,3.3,4.3,6.6,6.5,9.6c2.5,3.4,4.8,6.3,7.3,9.3c10,12.1,21.6,23.2,34,33.4c6.2,5.2,12.5,10.2,18.9,15.1
			l9.7,7.3l9.9,7c13.3,9.5,26.5,19,39.6,28.8c-14.4-7.8-28.6-15.8-42.8-23.8l-10.7-6.1l-10.4-6.5c-6.9-4.4-13.8-8.9-20.5-13.7
			c-13.4-9.6-26.3-20.2-38-32.5c-2.9-3.1-5.8-6.4-8.3-9.5c-2.8-3.4-5.3-6.7-7.8-10.3c-4.9-7-9.2-14.4-12.9-22.2
			c-7.5-15.5-12-32.8-12.4-50.5c-0.1-4.3,0.1-9.5,0.6-13.3l0.1-1.5l0.1-1.1l0.1-0.9c0.2-1.2,0.4-2.6,0.8-4.1c0.4-1.5,1-3.2,2-4.9
			c0.4-0.8,1.1-1.8,1.9-2.8l0.2-0.3l0.7-0.7l1.2-1.1c3.5-2.9,7.7-4,11-4.2c3.4-0.2,6.3,0.2,9,0.9c1.2,0.3,3,0.8,3.7,1.1l3.3,1.3
			c2.1,0.9,4.2,1.6,6.2,2.7c8.2,3.9,15.8,9,22.5,15c6.7,6,12.5,12.7,17.7,19.7c10.3,14.1,17.9,29.2,24.9,43.9l-18.6,6.9
			c-4.3-16-3.3-33.1,1.9-48.6c2.6-7.7,6.3-15.1,11-21.8c2.3-3.3,4.9-6.5,7.9-9.7c1.5-1.6,2.7-2.6,4-3.9c1.9-1.7,3.3-3,5.1-4.2
			c6.9-5.1,14.6-8.8,23.2-10.6c8.6-1.8,18.4-1.6,27.5,3.7c1.1,0.7,2.7,1.6,3.2,2.1l2.6,2.1c1.8,1.7,3.3,3.5,4.7,5.5
			c2.7,3.9,4.4,8,5.7,12c1.3,4,2.1,7.8,2.8,11.6l1.7,11c1,7.3,1.9,14.7,2.5,22.1c0.6,7.4,0.9,14.8,1,22.1c0.1,7.4,0.1,14.8-0.3,22.1
			c-0.3,7.4-0.8,14.7-1.6,22c-0.8,7.3-1.8,14.6-3,21.8c-1.2,7.2-2.6,14.4-4.3,21.5c-1.7,7.1-3.6,14.2-5.7,21.2
			C340.3,232.1,337.9,239,335.4,245.8z"/>
	</g>
</g>
<g>
	<path fill="#FFFFFF" d="M521.7,504H510v57h11.7c7.1,0,13.3-5.8,13.3-12.9v-31.4C535,509.6,528.8,504,521.7,504z"/>
	<path fill="#FFFFFF" d="M909,503.3c-7.1,0-13,5.8-13,12.8v32.7c0,7,5.9,12.8,13,12.8c7,0,13-5.8,13-12.8v-32.7
		C922,509.1,916,503.3,909,503.3z"/>
	<polygon fill="#FFFFFF" points="613.3,544 632.9,544 623.1,511.6 	"/>
	<path fill="#FFFFFF" d="M210,503.3c-7.1,0-13,5.8-13,12.8v32.7c0,7,5.9,12.8,13,12.8c7,0,13-5.8,13-12.8v-32.7
		C223,509.1,217,503.3,210,503.3z"/>
	<path fill="#FFFFFF" d="M30,455v146h1068V455H30z M129.8,504H103v23h23.6c2,0,3.6,1.5,3.6,3.6c0,1.9-1.6,3.4-3.6,3.4H103v31.1
		c0,2-2,3.6-4,3.6c-1.9,0-4-1.6-4-3.6v-64.7c0-2,2.1-3.4,4-3.4h30.8c1.9,0,3.5,1.5,3.5,3.5S131.7,504,129.8,504z M230,548.8
		c0,11-9,19.9-20,19.9c-11,0-20-8.9-20-19.9v-32.7c0-10.9,9-19.9,20-19.9c11,0,20,9,20,19.9V548.8z M334,548.8
		c0,10.9-9,19.9-20,19.9s-20-9-20-19.9v-49c0-2,1.5-3.6,3.5-3.6c1.9,0,3.5,1.6,3.5,3.6v49c0,7,6,12.7,13,12.7c7.1,0,13-5.7,13-12.7
		v-49c0-2,1.5-3.6,3.5-3.6c1.9,0,3.5,1.6,3.5,3.6V548.8z M438,565.1c0,1.7-1.3,3.1-2.9,3.5c-0.3,0.1-0.6,0.1-0.9,0.1
		c-1.3,0-2.5-0.7-3.1-2l-26.1-52v50.4c0,2-1.5,3.6-3.5,3.6c-1.9,0-3.5-1.6-3.5-3.6v-65.3c0-2,1.5-3.6,3.3-3.6c1.3,0,2.7,0.8,3.3,2
		l26.4,52v-50.4c0-2,1.5-3.6,3.5-3.6c2,0,3.5,1.6,3.5,3.6V565.1z M542,548.1c0,11-9.3,19.9-20.3,19.9h-14.9c-2,0-3.8-1.5-3.8-3.5
		v-64.2c0-1.9,1.8-3.3,3.8-3.3h14.9c11,0,20.3,8.7,20.3,19.7V548.1z M642.9,568.7c-1.5,0-2.8-1.2-3.3-2.8l-4.5-14.9h-23.9l-4.5,14.9
		c-0.5,1.5-1.9,2.7-3.4,2.7c-2.1,0-4.2-2.1-3.4-4.6l19.7-65.4c0.5-1.5,1.9-2.5,3.5-2.5c1.5,0,2.9,1,3.4,2.5l19.8,65.4
		C646.9,566.2,645.4,568.7,642.9,568.7z M735.5,504H722v61.1c0,2-1.5,3.6-3.5,3.6c-1.9,0-3.5-1.6-3.5-3.6V504h-13.9
		c-2,0-3.6-1.5-3.6-3.5c0-1.9,1.6-3.5,3.6-3.5h34.4c2,0,3.6,1.5,3.6,3.5C739.1,502.5,737.5,504,735.5,504z M825.4,561
		c2,0,3.6,1.5,3.6,3.5s-1.6,3.5-3.6,3.5h-25.1c-2,0-3.6-1.5-3.6-3.5s1.6-3.5,3.6-3.5h8.7v-57h-8.7c-2,0-3.6-1.5-3.6-3.5
		s1.6-3.5,3.6-3.5h25.1c2,0,3.6,1.5,3.6,3.5s-1.6,3.5-3.6,3.5H816v57H825.4z M929,548.8c0,11-9,19.9-20,19.9c-11,0-20-8.9-20-19.9
		v-32.7c0-10.9,9-19.9,20-19.9c11,0,20,9,20,19.9V548.8z M1029,565.1c0,1.7-1.1,3.1-2.7,3.5c-0.3,0.1-0.5,0.1-0.8,0.1
		c-1.3,0-2.6-0.7-3.2-2l-26.3-52v50.4c0,2-1.5,3.6-3.5,3.6c-1.9,0-3.5-1.6-3.5-3.6v-65.3c0-2,1.7-3.6,3.5-3.6c1.3,0,2.6,0.8,3.2,2
		l26.3,52v-50.4c0-2,1.5-3.6,3.5-3.6c2,0,3.5,1.6,3.5,3.6V565.1z"/>
</g>
</svg>
