<?xml version="1.0" encoding="utf-8"?>
<!-- Generator: Adobe Illustrator 17.1.0, SVG Export Plug-In . SVG Version: 6.00 Build 0)  -->
<!DOCTYPE svg PUBLIC "-//W3C//DTD SVG 1.1//EN" "http://www.w3.org/Graphics/SVG/1.1/DTD/svg11.dtd">
<svg version="1.1" id="Layer_1" xmlns="http://www.w3.org/2000/svg" xmlns:xlink="http://www.w3.org/1999/xlink" x="0px" y="0px"
	 viewBox="0 0 300 150" enable-background="new 0 0 300 150" xml:space="preserve">
<polygon fill="#CDCCCB" points="11.3,27 11.3,48.7 39.9,56.9 45.6,36.9 "/>
<path fill="#FFFFFF" d="M66.5,51.6v22.2v12.6c-1.2,1.1-2.6,1.8-4.1,2.1c-1.6,0.3-3,0.2-4.4-0.2c-1.4-0.4-2.6-1-3.6-1.9
	c-1-0.9-1.5-2-1.5-3.2V37.2c0-1.1,0.3-2.2,0.9-3.4c0.6-1.1,1.6-1.7,3.1-1.7h23.4V12H56.9c-4.6,0-8.4,0.7-11.6,2
	c-3.2,1.3-5.8,3.1-7.7,5.4c-1.9,2.3-3.3,5-4.2,8c-0.9,3.1-1.3,6.3-1.3,9.8v46.1c0,4.1,0.7,7.6,2,10.7c1.3,3.1,3.2,5.7,5.6,7.9
	c2.4,2.2,5.3,3.8,8.7,4.9c3.4,1.1,7.2,1.7,11.3,1.7c2.7,0,5.3-0.3,7.7-0.9h18V90.6V73.7V51.3L66.5,51.6z"/>
<polygon fill="#9C9998" points="287.3,27.1 133.3,71.3 139,91.3 287.3,48.8 "/>
<g>
	<path fill="#FFFFFF" d="M42.4,127.3c-0.5-0.8-1.9-1.6-3.5-1.6c-2.1,0-3,0.9-3,1.9c0,1.3,1.5,1.6,3.3,1.8c3.1,0.4,5.9,1.2,5.9,4.7
		c0,3.3-2.9,4.7-6.2,4.7c-3,0-5.3-0.9-6.4-3.6l2.3-1.2c0.6,1.6,2.3,2.3,4.1,2.3c1.7,0,3.4-0.6,3.4-2.2c0-1.4-1.4-1.9-3.4-2.2
		c-3-0.4-5.8-1.2-5.8-4.4c0-3,3-4.2,5.7-4.3c2.3,0,4.6,0.6,5.8,2.9L42.4,127.3z"/>
	<path fill="#FFFFFF" d="M55.5,134.1h-4.1v4.3h-2.8v-14.7c2.3,0,4.6,0,6.9,0C62.7,123.8,62.7,134.1,55.5,134.1z M51.4,131.6h4.1
		c3.5,0,3.5-5.2,0-5.2h-4.1V131.6z"/>
	<path fill="#FFFFFF" d="M78.6,131.2c0,3.8-2.4,7.6-7.5,7.6c-5.1,0-7.5-3.7-7.5-7.6c0-3.9,2.5-7.7,7.5-7.7
		C76.2,123.5,78.7,127.4,78.6,131.2z M66.3,131.3c0.1,2.4,1.4,5,4.8,5c3.5,0,4.8-2.6,4.8-5c0-2.5-1.3-5.2-4.8-5.2
		C67.7,126,66.3,128.8,66.3,131.3z"/>
	<path fill="#FFFFFF" d="M95.1,138.4h-3.3l-4.3-4.9h-2.7v4.9h-2.8v-14.7c2.3,0,4.6,0,7,0c3.5,0,5.3,2.3,5.3,4.9c0,2-0.9,4-3.7,4.6
		l4.4,5V138.4z M84.9,126.4v4.7h4.2c1.8,0,2.5-1.2,2.5-2.3s-0.8-2.3-2.5-2.3H84.9z"/>
	<path fill="#FFFFFF" d="M102.2,126.3h-4.6v-2.5c4.2,0,7.8,0,12.1,0v2.5h-4.6v12.1h-2.8V126.3z"/>
	<path fill="#FFFFFF" d="M121.8,127.3c-0.5-0.8-1.9-1.6-3.5-1.6c-2.1,0-3,0.9-3,1.9c0,1.3,1.5,1.6,3.3,1.8c3.1,0.4,5.9,1.2,5.9,4.7
		c0,3.3-2.9,4.7-6.2,4.7c-3,0-5.3-0.9-6.4-3.6l2.3-1.2c0.6,1.6,2.3,2.3,4.1,2.3c1.7,0,3.4-0.6,3.4-2.2c0-1.4-1.4-1.9-3.4-2.2
		c-3-0.4-5.8-1.2-5.8-4.4c0-3,3-4.2,5.7-4.3c2.3,0,4.6,0.6,5.8,2.9L121.8,127.3z"/>
	<path fill="#FFFFFF" d="M140.8,127.8l-4.8,6.4h-0.5l-4.7-6.4v10.7h-2.8v-14.7h3.2l4.6,6.3l4.6-6.3h3.2v14.7h-2.8V127.8z"/>
	<path fill="#FFFFFF" d="M158.6,138.4h-11c0-4.9,0-9.8,0-14.7h11v2.7h-8.2v3.4h7.9v2.6h-7.9v3.3h8.2V138.4z"/>
	<path fill="#FFFFFF" d="M172.2,123.8h2.8v14.7h-1.7v0l-7.7-9.9v9.9h-2.8v-14.7h2.2l7.2,9.1V123.8z"/>
	<path fill="#FFFFFF" d="M178.9,123.8h2.6l-1.6,4.7h-2L178.9,123.8z"/>
	<path fill="#FFFFFF" d="M193.7,127.3c-0.5-0.8-1.9-1.6-3.5-1.6c-2.1,0-3,0.9-3,1.9c0,1.3,1.5,1.6,3.3,1.8c3.1,0.4,5.9,1.2,5.9,4.7
		c0,3.3-2.9,4.7-6.2,4.7c-3,0-5.3-0.9-6.4-3.6l2.3-1.2c0.6,1.6,2.3,2.3,4.1,2.3c1.7,0,3.4-0.6,3.4-2.2c0-1.4-1.4-1.9-3.4-2.2
		c-3-0.4-5.8-1.2-5.8-4.4c0-3,3-4.2,5.7-4.3c2.3,0,4.6,0.6,5.8,2.9L193.7,127.3z"/>
	<path fill="#FFFFFF" d="M218.6,136.6c-1.5,1.5-3.5,2.2-5.6,2.2c-5.4,0-7.7-3.7-7.8-7.6c0-3.8,2.5-7.7,7.8-7.7c2,0,3.9,0.8,5.4,2.2
		l-1.8,1.8c-1-0.9-2.3-1.4-3.5-1.4c-3.5,0-5.1,2.6-5,5.1c0,2.4,1.4,5,5,5c1.3,0,2.7-0.5,3.7-1.5L218.6,136.6z"/>
	<path fill="#FFFFFF" d="M224.2,123.8v12.1h7.5v2.6h-10.3v-14.7H224.2z"/>
	<path fill="#FFFFFF" d="M247.1,123.8v8.4c0,4.3-2.7,6.6-6.3,6.6c-3.5,0-6.5-2.1-6.5-6.6v-8.4h2.7v8.4c0,2.6,1.5,4,3.8,4
		c2.3,0,3.6-1.5,3.6-4v-8.4H247.1z"/>
	<path fill="#FFFFFF" d="M263.2,128c0,1.1-0.5,2.2-1.9,2.8c1.7,0.5,2.3,2.3,2.3,3.3c0,3.3-2.4,4.3-5.5,4.3c-2.3,0-4.6,0-6.9,0v-14.7
		c2.3,0,4.6,0,6.9,0C261,123.8,263.2,125.1,263.2,128z M253.9,129.7h4.2c1.7,0,2.3-0.7,2.3-1.6c0-0.7-0.5-1.8-2.3-1.8h-4.2V129.7z
		 M253.9,135.9h4.2c1.1,0,2.7-0.4,2.7-1.8c0-1.3-1.6-2-2.7-2h-4.2V135.9z"/>
</g>
<path fill="#FFFFFF" d="M216.7,107.7h-47.2l1.2-1V12.3h20.8v74.6h24v19.6L216.7,107.7z"/>
<path fill="#FFFFFF" d="M266.5,12.3v20h-18v74.2l1.2,1.2h-23.1l1.2-1.2V32.3h-18.4v-20H266.5z"/>
<g>
	<path fill="#FFFFFF" d="M127.1,42.3L121,78.9l-7,27.6l1.2,1.2h-24l1.4-1.2l23.5-92.8l-1.2-1.2h24.5l-1.3,1.2l23.9,92.8l1.2,1.2
		h-23.9l1.3-1.2l-7.1-27.6l-6.2-36.5H127.1z"/>
</g>
<polygon fill="#CDCCCB" points="58.4,40.5 58.4,62.2 144.4,86.9 150.2,66.9 "/>
<g>
	<path fill="#FFFFFF" d="M116.1,13.6l-1.2-1.2h24.5l-1.3,1.2l23.9,92.8l1.2,1.2h-23.9l1.3-1.2l-7.1-27.6l-6.2-36.5h-0.3"/>
</g>
</svg>
