<?xml version="1.0" encoding="utf-8"?>
<!-- Generator: Adobe Illustrator 17.1.0, SVG Export Plug-In . SVG Version: 6.00 Build 0)  -->
<!DOCTYPE svg PUBLIC "-//W3C//DTD SVG 1.1//EN" "http://www.w3.org/Graphics/SVG/1.1/DTD/svg11.dtd">
<svg version="1.1" id="Layer_1" xmlns="http://www.w3.org/2000/svg" xmlns:xlink="http://www.w3.org/1999/xlink" x="0px" y="0px"
	 viewBox="48.1 0 203.8 300" enable-background="new 48.1 0 203.8 300" xml:space="preserve">
<g>
	<polygon fill="#B0D451" points="212,240 150.7,292 89.4,240 89.4,43.9 212,43.9 	"/>
	<polygon fill="#4F4B48" points="150.5,202.9 201.6,226.4 252.2,249.7 252.2,0 48.1,0 48.1,250 99.2,226.4 	"/>
	<polygon fill="#D96A27" points="53.8,95.3 53.8,110.4 73.7,116.2 77.8,102.1 	"/>
	<path fill="#FFFFFF" d="M92.3,112.4v15.5v8.8c-0.8,0.8-1.8,1.3-2.9,1.4c-1.1,0.2-2.2,0.1-3.1-0.1c-1-0.2-1.8-0.7-2.5-1.3
		s-1.1-1.3-1.1-2.2v-32.2c0-0.8,0.2-1.6,0.6-2.4s1.2-1.2,2.2-1.2h16.3V84.8H85.7c-3.2,0-5.9,0.5-8.2,1.4s-4,2.2-5.4,3.8
		c-1.3,1.6-2.3,3.5-2.9,5.6c-0.6,2.2-1,4.4-1,6.8v32.3c0,2.9,0.5,5.3,1.4,7.4s2.3,4,4,5.5c1.7,1.6,3.7,2.6,6.1,3.5
		c2.4,0.8,5,1.2,7.9,1.2c1.9,0,3.7-0.2,5.4-0.6h12.6V140v-11.8v-16.1L92.3,112.4z"/>
	<polygon fill="#A6CE3A" points="246.6,95.4 139,126.2 142.9,140.2 246.6,110.5 	"/>
	<g>
		<path fill="#FFFFFF" d="M75.5,165.4c-0.4-0.6-1.3-1.2-2.4-1.2c-1.4,0-2.2,0.6-2.2,1.3c0,0.8,1.1,1.1,2.3,1.3
			c2.2,0.2,4.1,0.8,4.1,3.2c0,2.3-2,3.2-4.3,3.2c-2,0-3.7-0.6-4.4-2.5l1.6-0.8c0.5,1.1,1.7,1.7,2.9,1.7c1.2,0,2.4-0.5,2.4-1.6
			c0-1-1-1.3-2.4-1.6c-2-0.2-4.1-0.8-4.1-3.1c0-2.2,2-3,4-3c1.6,0,3.2,0.5,4.1,2L75.5,165.4z"/>
		<path fill="#FFFFFF" d="M84.7,170h-2.9v3h-2v-10.2c1.6,0,3.2,0,4.8,0C89.6,162.8,89.6,170,84.7,170z M81.7,168.4h2.9
			c2.5,0,2.4-3.6,0-3.6h-2.9V168.4z"/>
		<path fill="#FFFFFF" d="M100.8,168c0,2.6-1.7,5.3-5.3,5.3c-3.6,0-5.3-2.6-5.3-5.3c0-2.6,1.7-5.4,5.3-5.4
			C99.1,162.7,100.8,165.4,100.8,168z M92.2,168.1c0,1.7,1,3.5,3.4,3.5c2.4,0,3.4-1.8,3.4-3.5s-1-3.6-3.4-3.6
			C93.1,164.4,92.2,166.3,92.2,168.1z"/>
		<path fill="#FFFFFF" d="M112.3,173.2H110l-3-3.5h-1.8v3.5h-1.9V163c1.7,0,3.2,0,4.9,0c2.4,0,3.7,1.7,3.7,3.4
			c0,1.4-0.6,2.9-2.6,3.2l3.1,3.5v0.1H112.3z M105.2,164.6v3.2h2.9c1.2,0,1.8-0.8,1.8-1.7s-0.6-1.7-1.8-1.7h-2.9V164.6z"/>
		<path fill="#FFFFFF" d="M117.2,164.6H114v-1.8c3,0,5.4,0,8.4,0v1.8h-3.2v8.5h-1.9V164.6z"/>
		<path fill="#FFFFFF" d="M130.9,165.4c-0.4-0.6-1.3-1.2-2.4-1.2c-1.4,0-2.2,0.6-2.2,1.3c0,0.8,1.1,1.1,2.3,1.3
			c2.2,0.2,4.1,0.8,4.1,3.2c0,2.3-2,3.2-4.3,3.2c-2,0-3.7-0.6-4.4-2.5l1.6-0.8c0.5,1.1,1.7,1.7,2.9,1.7c1.2,0,2.4-0.5,2.4-1.6
			c0-1-1-1.3-2.4-1.6c-2-0.2-4.1-0.8-4.1-3.1c0-2.2,2-3,4-3c1.6,0,3.2,0.5,4.1,2L130.9,165.4z"/>
		<path fill="#FFFFFF" d="M144.2,165.7l-3.4,4.4h-0.4l-3.2-4.4v7.4h-1.9V163h2.3l3.2,4.4l3.2-4.4h2.2v10.2h-1.9v-7.4H144.2z"/>
		<path fill="#FFFFFF" d="M156.6,173.2h-7.7c0-3.4,0-6.8,0-10.2h7.7v1.9h-5.8v2.4h5.5v1.8h-5.5v2.3h5.8V173.2z"/>
		<path fill="#FFFFFF" d="M166.2,162.8h1.9V173h-1.2l0,0l-5.4-7v7h-1.9v-10.2h1.6l5,6.4V162.8z"/>
		<path fill="#FFFFFF" d="M170.9,162.8h1.8l-1.2,3.2H170L170.9,162.8z"/>
		<path fill="#FFFFFF" d="M181.2,165.4c-0.4-0.6-1.3-1.2-2.4-1.2c-1.4,0-2.2,0.6-2.2,1.3c0,0.8,1.1,1.1,2.3,1.3
			c2.2,0.2,4.1,0.8,4.1,3.2c0,2.3-2,3.2-4.3,3.2c-2,0-3.7-0.6-4.4-2.5l1.6-0.8c0.5,1.1,1.7,1.7,2.9,1.7s2.4-0.5,2.4-1.6
			c0-1-1-1.3-2.4-1.6c-2-0.2-4.1-0.8-4.1-3.1c0-2.2,2-3,4-3c1.6,0,3.2,0.5,4.1,2L181.2,165.4z"/>
		<path fill="#FFFFFF" d="M198.6,171.8c-1.1,1.1-2.4,1.6-3.8,1.6c-3.8,0-5.4-2.6-5.4-5.3s1.7-5.4,5.4-5.4c1.4,0,2.8,0.5,3.7,1.6
			l-1.3,1.2c-0.7-0.6-1.6-1-2.5-1c-2.5,0-3.5,1.8-3.5,3.6c0,1.7,1,3.5,3.5,3.5c0.8,0,1.9-0.4,2.5-1.1L198.6,171.8z"/>
		<path fill="#FFFFFF" d="M202.4,162.8v8.4h5.3v1.8h-7.2v-10.2H202.4z"/>
		<path fill="#FFFFFF" d="M218.5,162.8v5.9c0,3-1.8,4.6-4.4,4.6c-2.4,0-4.6-1.4-4.6-4.6v-5.9h1.9v5.9c0,1.8,1.1,2.9,2.6,2.9
			c1.6,0,2.5-1.1,2.5-2.9v-5.9H218.5z"/>
		<path fill="#FFFFFF" d="M229.7,165.8c0,0.8-0.4,1.6-1.3,1.9c1.2,0.4,1.7,1.7,1.7,2.3c0,2.3-1.7,3-3.8,3c-1.7,0-3.2,0-4.8,0v-10.2
			c1.6,0,3.2,0,4.8,0C228.2,162.8,229.7,163.8,229.7,165.8z M223.2,166.9h3c1.2,0,1.6-0.5,1.6-1.1c0-0.5-0.4-1.2-1.6-1.2h-3V166.9z
			 M223.2,171.4h3c0.8,0,1.9-0.2,1.9-1.2c0-1-1.1-1.4-1.9-1.4h-3V171.4z"/>
	</g>
	<path fill="#FFFFFF" d="M197.2,151.6h-32.9l0.8-0.7V85h14.5V137h16.8v13.7L197.2,151.6z"/>
	<path fill="#FFFFFF" d="M232.1,85v14h-12.6v51.8l0.8,0.8h-16.2l0.8-0.8V99h-12.8V85H232.1z"/>
	<g>
		<path fill="#FFFFFF" d="M134.6,106l-4.2,25.6l-4.9,19.3l0.8,0.8h-16.8l1-0.8L127,86l-0.8-0.8h17.2l-0.8,0.8l16.7,64.8l0.8,0.8
			h-16.8l0.8-0.8l-4.9-19.3l-4.3-25.6H134.6z"/>
	</g>
	<polygon fill="#D96A27" points="86.6,104.8 86.6,119.9 146.8,137 150.7,123.1 	"/>
	<g>
		<path fill="#FFFFFF" d="M127,85.9l-0.8-0.8h17.2l-0.8,0.8l16.7,64.8l0.8,0.8h-16.8l0.8-0.8l-4.9-19.3l-4.3-25.6h-0.1"/>
	</g>
</g>
</svg>
