<?xml version="1.0" encoding="utf-8"?>
<!-- Generator: Adobe Illustrator 17.0.0, SVG Export Plug-In . SVG Version: 6.00 Build 0)  -->
<!DOCTYPE svg PUBLIC "-//W3C//DTD SVG 1.1//EN" "http://www.w3.org/Graphics/SVG/1.1/DTD/svg11.dtd">
<svg version="1.1" id="Layer_1" xmlns="http://www.w3.org/2000/svg" xmlns:xlink="http://www.w3.org/1999/xlink" x="0px" y="0px"
	 width="290.899px" height="255.556px" viewBox="0 0 290.899 255.556" enable-background="new 0 0 290.899 255.556"
	 xml:space="preserve">
<g>
	<path fill="#C6C3B5" d="M34.701,176.775c-0.112,0.49-0.265,0.704-0.725,0.777l-22.468,3.581c-0.462,0.074-0.689-0.174-0.486-0.678
		l0.553-2.449l-3.11-58.611l-0.812-2.137c-0.258-0.431-0.026-0.751,0.434-0.824l22.468-3.581c0.46-0.073,0.583,0.096,0.839,0.527
		l1.057,6.63c0.15,0.354-0.08,0.674-0.45,0.733l-15.285,2.436l1.052,20.226l4.974-0.793l2.277-1.118
		c0.43-0.257,0.736-0.117,0.716,0.358l0.522,8.604c-0.018,0.474-0.266,0.703-0.755,0.592l-2.328-0.384l-4.972,0.792l1.053,20.227
		l15.285-2.436c0.368-0.059,0.689,0.173,0.563,0.572L34.701,176.775z"/>
	<path fill="#C6C3B5" d="M55.786,108.831c0.368-0.059,0.568,0.003,0.795,0.251l3.553,2.739c0.227,0.247,0.35,0.416,0.409,0.784
		l2.931,55.713c0.059,0.369-0.097,0.583-0.328,0.902l-3.17,3.81c-0.233,0.32-0.401,0.442-0.769,0.5l-3.499,0.558l0.726,15.541
		c-0.018,0.475-0.172,0.689-0.634,0.762l-6.63,1.057c-0.46,0.073-0.674-0.081-0.654-0.557l-0.728-15.541l-3.499,0.558
		c-0.368,0.059-0.568-0.004-0.888-0.236l-3.459-2.754c-0.321-0.232-0.35-0.416-0.409-0.785l-2.931-55.713
		c-0.059-0.368,0.004-0.567,0.328-0.901l3.077-3.795c0.324-0.335,0.495-0.456,0.863-0.515L55.786,108.831z M52.643,117.546
		l-7.919,1.262l2.631,48.49l7.919-1.262L52.643,117.546z"/>
	<path fill="#C6C3B5" d="M90.962,103.224c0.46-0.073,0.597,0.188,0.486,0.678l-0.646,2.463l3.06,57.109
		c0.059,0.369-0.095,0.582-0.328,0.902l-3.079,3.796c-0.231,0.32-0.401,0.442-0.769,0.5l-15.009,2.392
		c-0.368,0.059-0.568-0.004-0.888-0.236l-3.368-2.768c-0.321-0.232-0.35-0.416-0.409-0.785l-3.06-57.109l-0.827-2.228
		c-0.258-0.431-0.026-0.751,0.436-0.825l8.471-1.35c0.46-0.073,0.597,0.188,0.486,0.678l-0.646,2.463l2.87,53.551l8.011-1.277
		l-2.87-53.551l-0.827-2.228c-0.258-0.431-0.026-0.751,0.436-0.825L90.962,103.224z"/>
	<path fill="#C6C3B5" d="M124.574,162.45c-0.11,0.49-0.265,0.704-0.725,0.777l-22.468,3.581c-0.46,0.073-0.689-0.174-0.486-0.678
		l0.554-2.45l-3.111-58.611l-0.812-2.137c-0.258-0.431-0.026-0.751,0.436-0.825l22.466-3.581c0.462-0.074,0.583,0.096,0.841,0.527
		l1.057,6.63c0.15,0.354-0.082,0.674-0.45,0.733l-15.285,2.436l1.052,20.226l4.972-0.792l2.277-1.118
		c0.43-0.257,0.736-0.117,0.718,0.358l0.521,8.604c-0.018,0.474-0.266,0.703-0.755,0.592l-2.327-0.384l-4.974,0.793l1.053,20.227
		l15.285-2.436c0.368-0.059,0.689,0.173,0.564,0.571L124.574,162.45z"/>
	<path fill="#C6C3B5" d="M151.32,106.917l0.812,2.137c0.258,0.43,0.026,0.751-0.434,0.824l-8.472,1.35
		c-0.46,0.073-0.596-0.189-0.577-0.663l0.661-2.372l-0.333-5.046l-7.919,1.262l1.144,20.213l11.512-1.835
		c0.368-0.059,0.566,0.004,0.795,0.251l3.459,2.754c0.229,0.246,0.35,0.416,0.409,0.784l1.432,27.342
		c0.059,0.369-0.097,0.583-0.329,0.902l-3.077,3.795c-0.233,0.32-0.401,0.442-0.769,0.5l-15.01,2.393
		c-0.368,0.059-0.566-0.005-0.887-0.236l-3.459-2.754c-0.321-0.232-0.35-0.416-0.409-0.785l-0.431-8.617l-0.904-2.122
		c-0.073-0.461,0.066-0.766,0.527-0.839l8.471-1.35c0.46-0.073,0.689,0.173,0.486,0.678l-0.567,2.357l0.239,5.06l7.919-1.262
		l-1.052-20.226l-11.418,1.82c-0.368,0.059-0.568-0.004-0.887-0.237l-3.461-2.753c-0.321-0.233-0.442-0.402-0.409-0.785
		l-1.446-27.435c-0.059-0.368,0.005-0.567,0.33-0.902l3.077-3.796c0.324-0.335,0.495-0.456,0.863-0.515l15.009-2.392
		c0.368-0.059,0.568,0.003,0.795,0.251l3.461,2.753c0.227,0.247,0.35,0.416,0.409,0.784L151.32,106.917z"/>
	<path fill="#C6C3B5" d="M177.337,89.456c0.46-0.073,0.583,0.096,0.839,0.527l1.071,6.721c0.15,0.354-0.174,0.689-0.542,0.748
		l-7.274,1.159l2.87,53.551l0.905,2.122c0.165,0.445,0.026,0.751-0.436,0.825l-8.471,1.35c-0.46,0.073-0.689-0.174-0.486-0.678
		l0.567-2.357l-2.87-53.551l-7.366,1.174c-0.368,0.059-0.595-0.188-0.563-0.572l0.493-6.971c0.02-0.476,0.265-0.704,0.727-0.777
		L177.337,89.456z"/>
	<path fill="#C6C3B5" d="M196.017,150.968c0.167,0.445,0.026,0.751-0.434,0.824l-8.472,1.35c-0.46,0.073-0.689-0.174-0.486-0.678
		l0.569-2.357l-3.111-58.612l-0.827-2.228c-0.258-0.431-0.026-0.751,0.436-0.825l19.704-3.141c0.37-0.059,0.568,0.003,0.797,0.251
		l3.459,2.754c0.229,0.246,0.35,0.416,0.409,0.784l1.446,27.435c-0.035,0.383-0.097,0.582-0.329,0.902l-3.386,4.222l4.708,23.61
		l1.171,3.212c0.167,0.445,0.026,0.751-0.434,0.824l-8.379,1.336c-0.553,0.088-0.781-0.159-0.579-0.663l0.536-1.974l-5.034-25.068
		l-3.96,0.631l1.294,25.287L196.017,150.968z M193.387,115.508l8.011-1.277l-1.144-20.213l-8.011,1.277L193.387,115.508z"/>
	<path fill="#C6C3B5" d="M225.777,143.958l0.905,2.122c0.165,0.445,0.024,0.751-0.436,0.825l-8.472,1.35
		c-0.46,0.073-0.689-0.174-0.486-0.678l0.569-2.357l-3.11-58.612l-0.828-2.228c-0.257-0.432-0.024-0.751,0.436-0.825l8.471-1.35
		c0.462-0.074,0.597,0.188,0.486,0.678l-0.646,2.463L225.777,143.958z"/>
	<path fill="#C6C3B5" d="M254.671,138.031l1.294,3.382c0.165,0.445,0.026,0.751-0.436,0.825l-8.379,1.336
		c-0.553,0.088-0.781-0.159-0.577-0.663l0.626-1.989l-2.128-13.352l-4.88,0.778l-0.541,13.777l0.662,1.783
		c0.165,0.445,0.024,0.751-0.436,0.825l-8.471,1.35c-0.462,0.074-0.689-0.174-0.486-0.678l0.915-3.734l4.053-59.281l-0.511-1.43
		c-0.257-0.432-0.026-0.751,0.436-0.825l8.471-1.35c0.46-0.073,0.597,0.188,0.486,0.678l-0.41,1.577L254.671,138.031z
		 M240.48,120.087l3.314-0.528l-2.516-16.973L240.48,120.087z"/>
	<path fill="#C6C3B5" d="M268.687,137.119l0.905,2.122c0.165,0.445,0.026,0.751-0.436,0.825l-8.471,1.35
		c-0.46,0.073-0.689-0.174-0.486-0.678l0.569-2.357l-3.111-58.612l-0.827-2.228c-0.258-0.431-0.026-0.751,0.434-0.824l7.643-1.218
		c0.368-0.059,0.491,0.111,0.641,0.464l9.772,33.472l-1.733-32.205l-0.827-2.228c-0.258-0.431-0.026-0.751,0.434-0.824l8.472-1.35
		c0.46-0.073,0.595,0.188,0.486,0.678l-0.646,2.463l3.11,58.612l0.905,2.122c0.165,0.445,0.026,0.751-0.436,0.825l-7.643,1.218
		c-0.368,0.059-0.581-0.096-0.639-0.464l-9.774-33.472L268.687,137.119z"/>
</g>
<g>
	<path fill="#FF4D3B" d="M32.351,179.126c-0.112,0.49-0.265,0.704-0.725,0.777l-22.468,3.581c-0.462,0.074-0.689-0.174-0.486-0.678
		l0.553-2.449l-3.11-58.611l-0.812-2.137c-0.258-0.431-0.026-0.751,0.434-0.824l22.468-3.581c0.46-0.073,0.583,0.096,0.839,0.527
		l1.057,6.63c0.15,0.354-0.08,0.674-0.45,0.733l-15.285,2.436l1.052,20.226l4.974-0.793l2.277-1.118
		c0.43-0.257,0.736-0.117,0.716,0.358l0.522,8.604c-0.018,0.474-0.266,0.703-0.755,0.592l-2.328-0.384l-4.972,0.792l1.053,20.227
		l15.285-2.436c0.368-0.059,0.689,0.173,0.563,0.572L32.351,179.126z"/>
	<path fill="#FF4D3B" d="M53.435,111.182c0.368-0.059,0.568,0.003,0.795,0.251l3.553,2.739c0.227,0.247,0.35,0.416,0.409,0.784
		l2.931,55.713c0.059,0.369-0.097,0.583-0.328,0.902l-3.17,3.81c-0.233,0.32-0.401,0.442-0.769,0.5l-3.499,0.558l0.726,15.541
		c-0.018,0.475-0.172,0.689-0.634,0.762l-6.63,1.057c-0.46,0.073-0.674-0.081-0.654-0.557l-0.728-15.541l-3.499,0.558
		c-0.368,0.059-0.568-0.004-0.888-0.236l-3.459-2.754c-0.321-0.232-0.35-0.416-0.409-0.785l-2.931-55.713
		c-0.059-0.368,0.004-0.567,0.328-0.901l3.077-3.795c0.324-0.335,0.495-0.456,0.863-0.515L53.435,111.182z M50.292,119.897
		l-7.919,1.262l2.631,48.49l7.919-1.262L50.292,119.897z"/>
	<path fill="#FF4D3B" d="M88.611,105.575c0.46-0.073,0.597,0.188,0.486,0.678l-0.646,2.463l3.06,57.109
		c0.059,0.369-0.095,0.582-0.328,0.902l-3.079,3.796c-0.231,0.32-0.401,0.441-0.769,0.5l-15.009,2.392
		c-0.368,0.059-0.568-0.004-0.888-0.236l-3.368-2.768c-0.321-0.232-0.35-0.416-0.409-0.785l-3.06-57.109l-0.827-2.228
		c-0.258-0.431-0.026-0.751,0.436-0.825l8.471-1.35c0.46-0.073,0.597,0.188,0.486,0.678l-0.646,2.463l2.87,53.551l8.011-1.277
		l-2.87-53.551l-0.827-2.228c-0.258-0.431-0.026-0.751,0.436-0.825L88.611,105.575z"/>
	<path fill="#FF4D3B" d="M122.223,164.801c-0.11,0.49-0.265,0.704-0.725,0.777l-22.468,3.581c-0.46,0.073-0.689-0.174-0.486-0.678
		l0.554-2.45l-3.111-58.611l-0.812-2.137c-0.258-0.431-0.026-0.751,0.436-0.825l22.466-3.581c0.462-0.074,0.583,0.096,0.841,0.527
		l1.057,6.63c0.15,0.354-0.082,0.674-0.45,0.733l-15.285,2.436l1.052,20.226l4.972-0.792l2.277-1.118
		c0.43-0.257,0.736-0.117,0.718,0.358l0.521,8.604c-0.018,0.474-0.266,0.703-0.755,0.592l-2.327-0.384l-4.974,0.793l1.053,20.227
		l15.285-2.436c0.368-0.059,0.689,0.173,0.564,0.571L122.223,164.801z"/>
	<path fill="#FF4D3B" d="M148.969,109.268l0.812,2.137c0.258,0.43,0.026,0.751-0.434,0.824l-8.472,1.35
		c-0.46,0.073-0.596-0.189-0.577-0.663l0.661-2.372l-0.333-5.046l-7.919,1.262l1.144,20.213l11.512-1.835
		c0.368-0.059,0.566,0.004,0.795,0.251l3.459,2.754c0.229,0.246,0.35,0.416,0.409,0.784l1.432,27.342
		c0.059,0.369-0.097,0.583-0.329,0.902l-3.077,3.796c-0.233,0.32-0.401,0.441-0.769,0.5l-15.01,2.393
		c-0.368,0.059-0.566-0.005-0.887-0.236l-3.459-2.754c-0.321-0.232-0.35-0.416-0.409-0.785l-0.431-8.617l-0.904-2.122
		c-0.073-0.461,0.066-0.766,0.527-0.839l8.471-1.35c0.46-0.073,0.689,0.173,0.486,0.678l-0.567,2.357l0.239,5.06l7.919-1.262
		l-1.052-20.226l-11.418,1.82c-0.368,0.059-0.568-0.004-0.887-0.237l-3.461-2.753c-0.321-0.233-0.442-0.402-0.409-0.785
		l-1.446-27.435c-0.059-0.368,0.005-0.567,0.33-0.902l3.077-3.795c0.324-0.335,0.495-0.456,0.863-0.515l15.009-2.392
		c0.368-0.059,0.568,0.003,0.795,0.251l3.461,2.753c0.227,0.247,0.35,0.416,0.409,0.784L148.969,109.268z"/>
	<path fill="#FF4D3B" d="M174.986,91.807c0.46-0.073,0.583,0.096,0.839,0.527l1.071,6.721c0.15,0.354-0.174,0.689-0.542,0.748
		l-7.274,1.159l2.87,53.551l0.905,2.122c0.165,0.445,0.026,0.751-0.436,0.825l-8.471,1.35c-0.46,0.073-0.689-0.174-0.486-0.678
		l0.567-2.357l-2.87-53.551l-7.366,1.174c-0.368,0.059-0.595-0.188-0.563-0.572l0.493-6.971c0.02-0.476,0.265-0.703,0.727-0.777
		L174.986,91.807z"/>
	<path fill="#FF4D3B" d="M193.666,153.319c0.167,0.445,0.026,0.751-0.434,0.824l-8.472,1.35c-0.46,0.073-0.689-0.174-0.486-0.678
		l0.569-2.357l-3.111-58.612l-0.827-2.228c-0.258-0.431-0.026-0.751,0.436-0.825l19.704-3.141c0.37-0.059,0.568,0.003,0.797,0.251
		l3.459,2.754c0.229,0.246,0.35,0.416,0.409,0.784l1.446,27.435c-0.035,0.383-0.097,0.582-0.329,0.902l-3.386,4.222l4.708,23.61
		l1.171,3.212c0.167,0.445,0.026,0.751-0.434,0.824l-8.379,1.336c-0.553,0.088-0.781-0.159-0.579-0.663l0.536-1.974l-5.034-25.068
		l-3.96,0.631l1.294,25.287L193.666,153.319z M191.037,117.858l8.011-1.277l-1.144-20.213l-8.011,1.277L191.037,117.858z"/>
	<path fill="#FF4D3B" d="M223.427,146.309l0.905,2.122c0.165,0.445,0.024,0.751-0.436,0.825l-8.472,1.35
		c-0.46,0.073-0.689-0.174-0.486-0.678l0.569-2.357l-3.11-58.612l-0.828-2.228c-0.257-0.432-0.024-0.751,0.436-0.825l8.471-1.35
		c0.462-0.074,0.597,0.188,0.486,0.678l-0.646,2.463L223.427,146.309z"/>
	<path fill="#FF4D3B" d="M252.321,140.382l1.294,3.382c0.165,0.445,0.026,0.751-0.436,0.825l-8.379,1.336
		c-0.553,0.088-0.781-0.159-0.577-0.663l0.626-1.989l-2.128-13.352l-4.88,0.778l-0.541,13.777l0.662,1.783
		c0.165,0.445,0.024,0.751-0.436,0.825l-8.471,1.35c-0.462,0.074-0.689-0.174-0.486-0.678l0.915-3.734l4.053-59.281l-0.512-1.43
		c-0.257-0.432-0.026-0.751,0.436-0.825l8.471-1.35c0.46-0.073,0.597,0.188,0.486,0.678l-0.41,1.577L252.321,140.382z
		 M238.13,122.438l3.314-0.528l-2.516-16.973L238.13,122.438z"/>
	<path fill="#FF4D3B" d="M266.337,139.47l0.905,2.122c0.165,0.445,0.026,0.751-0.436,0.825l-8.471,1.35
		c-0.46,0.073-0.689-0.174-0.486-0.678l0.569-2.357l-3.111-58.612l-0.827-2.228c-0.258-0.431-0.026-0.751,0.434-0.824l7.643-1.218
		c0.368-0.059,0.491,0.111,0.641,0.464l9.772,33.472l-1.733-32.205l-0.827-2.228c-0.258-0.431-0.026-0.751,0.434-0.824l8.472-1.35
		c0.46-0.073,0.595,0.188,0.486,0.678l-0.646,2.463l3.11,58.612l0.905,2.122c0.165,0.445,0.026,0.751-0.436,0.825l-7.643,1.218
		c-0.368,0.059-0.581-0.096-0.639-0.464l-9.774-33.472L266.337,139.47z"/>
</g>
<polygon fill="#C6C3B5" points="277.93,59.046 4.841,102.574 5.268,110.601 278.356,67.073 "/>
<polygon fill="#C6C3B5" points="157.371,62.072 4.008,86.517 4.435,94.544 157.796,70.099 "/>
<polygon fill="#C6C3B5" points="61.659,183.338 62.085,191.365 283.215,156.119 282.789,148.092 "/>
<polygon fill="#C6C3B5" points="122.386,189.849 122.812,197.876 284.079,172.171 283.653,164.144 "/>
<g>
	<path fill="#EE9072" d="M81.182,38.209c0.796,2.32,1.318,4.526,1.57,6.615c0.251,2.091,0.223,3.973-0.084,5.644
		c-0.307,1.673-0.891,3.098-1.753,4.272c-0.862,1.176-2.022,2.014-3.483,2.513c-1.461,0.5-2.892,0.549-4.294,0.149
		c-1.401-0.399-2.735-1.166-4.003-2.301c-1.269-1.132-2.444-2.603-3.526-4.409c-1.083-1.804-2.021-3.867-2.816-6.188
		c-0.794-2.32-1.332-4.52-1.612-6.601c-0.28-2.081-0.274-3.954,0.02-5.623c0.292-1.668,0.877-3.093,1.753-4.272
		c0.875-1.179,2.072-2.03,3.591-2.55c1.461-0.5,2.891-0.549,4.292-0.151c1.401,0.402,2.735,1.169,4.004,2.302
		c1.268,1.134,2.443,2.603,3.526,4.409C79.449,33.827,80.388,35.888,81.182,38.209z M80.237,38.533
		c-0.716-2.091-1.567-3.993-2.553-5.703s-2.052-3.121-3.201-4.232c-1.148-1.112-2.373-1.884-3.675-2.319
		c-1.3-0.434-2.624-0.421-3.971,0.041c-1.404,0.48-2.485,1.291-3.246,2.432c-0.762,1.141-1.256,2.502-1.482,4.083
		c-0.227,1.583-0.192,3.347,0.107,5.292c0.299,1.947,0.806,3.964,1.522,6.055c0.716,2.092,1.549,3.99,2.501,5.696
		c0.953,1.707,2.006,3.122,3.158,4.246c1.153,1.126,2.381,1.906,3.682,2.34c1.302,0.435,2.653,0.412,4.057-0.069
		c1.374-0.47,2.443-1.276,3.205-2.417c0.761-1.141,1.253-2.509,1.474-4.105c0.222-1.596,0.193-3.362-0.087-5.299
		C81.45,42.637,80.953,40.624,80.237,38.533z"/>
	<path fill="#EE9072" d="M110.594,47.825L91.024,20.268l-0.09,0.018l6.322,30.32l-0.979,0.204l-6.563-31.476l1.602-0.333
		l19.516,27.522l0.09-0.018l-6.313-30.276l0.977-0.204l6.565,31.476L110.594,47.825z"/>
	<path fill="#EE9072" d="M123.899,14.51l3.289,31.072l-0.994,0.106l-3.288-31.072l-6.324,0.669l-0.095-0.903l13.639-1.443
		l0.095,0.903L123.899,14.51z"/>
	<path fill="#EE9072" d="M151.65,35.113l-11.306,0.238l-2.259,9.223l-0.999,0.02l7.633-32.32l1.726-0.036l8.712,31.977l-0.999,0.02
		L151.65,35.113z M140.552,34.439l10.852-0.229l-5.716-21.275l-0.182,0.004L140.552,34.439z"/>
	<path fill="#EE9072" d="M176.323,45.66l-5.434-16.706l-5.07-0.411l-1.311,16.16l-0.995-0.081l2.599-32.048l6.271,0.508
		c0.783,0.064,1.6,0.245,2.454,0.541c0.854,0.298,1.618,0.77,2.293,1.416c0.673,0.647,1.21,1.496,1.61,2.546
		c0.398,1.05,0.535,2.36,0.408,3.928c-0.12,1.48-0.425,2.707-0.914,3.685c-0.49,0.978-1.077,1.757-1.763,2.34
		c-0.684,0.583-1.432,0.986-2.24,1.207c-0.808,0.225-1.589,0.305-2.343,0.243l5.52,16.76L176.323,45.66z M178.242,21.44
		c0.107-1.327,0.008-2.451-0.296-3.373c-0.306-0.92-0.746-1.669-1.322-2.249c-0.576-0.578-1.262-1.013-2.058-1.305
		c-0.796-0.293-1.617-0.473-2.463-0.542l-5.069-0.411l-1.142,14.077l5.387,0.437c2.083,0.168,3.719-0.351,4.911-1.562
		C177.381,25.305,178.065,23.613,178.242,21.44z"/>
	<path fill="#EE9072" d="M187.266,47.259l5.2-31.729l0.987,0.161l-5.2,31.731L187.266,47.259z"/>
	<path fill="#EE9072" d="M221.436,38.501c-0.617,2.374-1.398,4.502-2.34,6.384c-0.943,1.883-2.004,3.436-3.182,4.663
		c-1.178,1.226-2.452,2.092-3.817,2.597c-1.369,0.505-2.799,0.564-4.293,0.174c-1.494-0.388-2.716-1.135-3.663-2.241
		c-0.95-1.107-1.64-2.482-2.071-4.128c-0.434-1.645-0.604-3.52-0.511-5.623c0.092-2.102,0.447-4.341,1.064-6.714
		c0.617-2.374,1.382-4.506,2.295-6.396c0.913-1.889,1.953-3.449,3.117-4.679c1.165-1.23,2.437-2.096,3.819-2.597
		c1.381-0.501,2.848-0.551,4.402-0.147c1.494,0.389,2.715,1.137,3.664,2.243c0.947,1.108,1.637,2.482,2.071,4.128
		c0.433,1.645,0.601,3.52,0.509,5.622C222.406,33.889,222.052,36.127,221.436,38.501z M220.468,38.25
		c0.556-2.139,0.894-4.194,1.015-6.165c0.121-1.97,0.01-3.735-0.337-5.295c-0.345-1.56-0.94-2.879-1.786-3.961
		c-0.845-1.079-1.956-1.798-3.334-2.156c-1.436-0.374-2.785-0.293-4.049,0.238c-1.265,0.532-2.428,1.395-3.489,2.589
		c-1.061,1.195-2.004,2.687-2.828,4.475c-0.824,1.788-1.514,3.751-2.07,5.89c-0.556,2.139-0.908,4.183-1.053,6.131
		c-0.147,1.949-0.049,3.71,0.292,5.284c0.342,1.575,0.936,2.903,1.781,3.982c0.845,1.082,1.986,1.807,3.422,2.181
		c1.406,0.364,2.742,0.283,4.006-0.249c1.264-0.532,2.429-1.403,3.494-2.611c1.065-1.209,2.014-2.698,2.851-4.468
		C219.218,42.344,219.912,40.389,220.468,38.25z"/>
</g>
<g>
	<path fill="#4C5556" d="M64.393,225.286l-7.855-2.965l-4.109,5.73l-0.694-0.263l14.204-20.155l1.199,0.452l-2.848,24.442
		l-0.694-0.261L64.393,225.286z M56.934,221.751l7.539,2.845l1.949-16.239l-0.126-0.049L56.934,221.751z"/>
	<path fill="#4C5556" d="M82.423,232.11c-0.271,0.951-0.646,1.756-1.126,2.414c-0.48,0.658-1.028,1.167-1.645,1.53
		c-0.617,0.361-1.271,0.584-1.961,0.668c-0.69,0.084-1.372,0.03-2.041-0.161c-1.102-0.314-2.012-0.836-2.727-1.566
		c-0.716-0.73-1.214-1.626-1.495-2.688l0.704-0.255c0.272,1.012,0.745,1.848,1.423,2.508c0.675,0.662,1.425,1.109,2.247,1.343
		c0.584,0.166,1.173,0.206,1.771,0.12c0.596-0.088,1.159-0.296,1.685-0.625c0.527-0.328,1.007-0.788,1.444-1.376
		c0.437-0.588,0.776-1.305,1.016-2.147c0.221-0.778,0.29-1.507,0.202-2.186c-0.086-0.679-0.275-1.312-0.563-1.897
		s-0.644-1.125-1.064-1.618c-0.42-0.494-0.853-0.944-1.298-1.352c-0.519-0.475-1.012-0.984-1.477-1.524
		c-0.465-0.542-0.841-1.128-1.128-1.76c-0.288-0.632-0.471-1.321-0.551-2.067c-0.079-0.748,0.007-1.564,0.261-2.451
		c0.271-0.951,0.649-1.748,1.137-2.393c0.487-0.643,1.038-1.141,1.653-1.492c0.613-0.352,1.27-0.562,1.968-0.631
		s1.392-0.007,2.085,0.191c0.885,0.252,1.651,0.663,2.295,1.233c0.645,0.569,1.085,1.344,1.32,2.321l-0.64,0.275
		c-0.247-0.936-0.647-1.645-1.199-2.13c-0.551-0.484-1.216-0.837-1.995-1.059c-0.54-0.154-1.104-0.204-1.693-0.149
		c-0.589,0.055-1.152,0.232-1.695,0.534c-0.541,0.302-1.037,0.744-1.484,1.33c-0.447,0.586-0.8,1.332-1.059,2.241
		c-0.227,0.799-0.308,1.531-0.24,2.192c0.068,0.664,0.236,1.266,0.502,1.809c0.265,0.544,0.595,1.047,0.989,1.51
		c0.395,0.462,0.795,0.881,1.203,1.253c0.571,0.538,1.103,1.093,1.594,1.665c0.491,0.572,0.896,1.183,1.213,1.835
		c0.316,0.652,0.521,1.353,0.611,2.102C82.757,230.404,82.676,231.223,82.423,232.11z"/>
	<path fill="#4C5556" d="M100.318,235.963c-0.191,0.97-0.497,1.803-0.921,2.499c-0.424,0.696-0.927,1.25-1.513,1.661
		c-0.584,0.412-1.218,0.687-1.898,0.829c-0.68,0.141-1.363,0.145-2.046,0.009c-1.125-0.221-2.075-0.665-2.848-1.333
		c-0.773-0.668-1.344-1.519-1.714-2.554l0.681-0.313c0.354,0.986,0.897,1.78,1.627,2.382c0.728,0.602,1.512,0.985,2.351,1.151
		c0.595,0.117,1.186,0.108,1.775-0.029s1.13-0.391,1.628-0.762c0.497-0.373,0.939-0.869,1.324-1.493
		c0.387-0.623,0.664-1.364,0.834-2.225c0.155-0.794,0.163-1.526,0.019-2.196c-0.144-0.668-0.383-1.283-0.72-1.842
		s-0.735-1.067-1.195-1.525c-0.46-0.456-0.929-0.87-1.405-1.238c-0.558-0.431-1.09-0.896-1.599-1.397
		c-0.509-0.502-0.933-1.055-1.271-1.659c-0.34-0.605-0.58-1.277-0.721-2.015c-0.142-0.738-0.123-1.559,0.055-2.464
		c0.191-0.97,0.502-1.796,0.935-2.479c0.432-0.683,0.939-1.225,1.522-1.626c0.583-0.4,1.219-0.664,1.909-0.792
		s1.388-0.122,2.093,0.017c0.904,0.178,1.702,0.524,2.391,1.037c0.689,0.514,1.192,1.249,1.508,2.204l-0.614,0.325
		c-0.325-0.91-0.783-1.585-1.372-2.021c-0.59-0.437-1.282-0.733-2.076-0.89c-0.551-0.109-1.118-0.112-1.699-0.008
		c-0.583,0.104-1.129,0.327-1.645,0.672c-0.514,0.347-0.97,0.829-1.367,1.45c-0.397,0.621-0.688,1.394-0.869,2.321
		c-0.162,0.816-0.18,1.551-0.057,2.204c0.124,0.656,0.34,1.242,0.652,1.761c0.31,0.518,0.68,0.993,1.111,1.421
		c0.431,0.428,0.866,0.811,1.302,1.15c0.615,0.488,1.19,0.996,1.728,1.525c0.537,0.529,0.99,1.106,1.361,1.729
		c0.369,0.623,0.63,1.305,0.782,2.044C100.508,234.236,100.495,235.059,100.318,235.963z"/>
	<path fill="#4C5556" d="M123.221,232.384c-0.185,1.812-0.516,3.461-0.995,4.949c-0.48,1.489-1.082,2.75-1.809,3.781
		c-0.727,1.035-1.563,1.813-2.509,2.339c-0.946,0.525-1.988,0.73-3.13,0.613c-1.14-0.115-2.12-0.527-2.942-1.232
		c-0.82-0.704-1.482-1.635-1.985-2.795c-0.504-1.157-0.842-2.514-1.01-4.067c-0.17-1.555-0.163-3.237,0.022-5.048
		c0.185-1.812,0.504-3.462,0.962-4.952c0.456-1.491,1.042-2.753,1.757-3.787c0.716-1.034,1.552-1.814,2.509-2.339
		c0.956-0.523,2.028-0.725,3.213-0.604c1.142,0.115,2.122,0.527,2.942,1.232c0.821,0.705,1.484,1.637,1.987,2.795
		c0.504,1.158,0.84,2.514,1.01,4.067C123.413,228.891,123.405,230.573,123.221,232.384z M122.483,232.31
		c0.165-1.632,0.182-3.179,0.048-4.639c-0.135-1.46-0.416-2.742-0.846-3.848c-0.43-1.106-1.016-2.007-1.758-2.704
		c-0.743-0.696-1.64-1.099-2.691-1.206c-1.096-0.111-2.077,0.099-2.945,0.633c-0.867,0.533-1.623,1.298-2.266,2.294
		c-0.644,0.997-1.167,2.198-1.57,3.603c-0.403,1.404-0.688,2.924-0.854,4.555c-0.166,1.634-0.192,3.172-0.08,4.619
		c0.112,1.446,0.383,2.728,0.812,3.845c0.429,1.117,1.014,2.023,1.757,2.721c0.742,0.696,1.662,1.101,2.758,1.212
		c1.073,0.109,2.043-0.103,2.911-0.636c0.867-0.533,1.624-1.304,2.269-2.312c0.645-1.006,1.174-2.207,1.586-3.6
		C122.028,235.455,122.317,233.942,122.483,232.31z"/>
	<path fill="#4C5556" d="M141.115,244.453c-1.003,0.534-1.977,0.798-2.922,0.792c-1.235-0.008-2.319-0.336-3.248-0.982
		c-0.928-0.646-1.705-1.528-2.326-2.644c-0.623-1.117-1.092-2.435-1.409-3.954c-0.317-1.519-0.469-3.168-0.458-4.943
		c0.011-1.776,0.184-3.427,0.52-4.954c0.335-1.526,0.821-2.844,1.457-3.953c0.636-1.108,1.424-1.975,2.36-2.598
		c0.938-0.623,2.023-0.931,3.26-0.923c0.899,0.006,1.813,0.247,2.744,0.726c0.929,0.477,1.694,1.291,2.295,2.441l-0.61,0.368
		c-0.555-1.016-1.232-1.745-2.026-2.188c-0.796-0.444-1.598-0.668-2.407-0.673c-1.147-0.007-2.15,0.296-3.008,0.908
		c-0.858,0.615-1.565,1.447-2.122,2.499c-0.558,1.053-0.981,2.299-1.271,3.736c-0.291,1.437-0.44,2.976-0.45,4.617
		c-0.01,1.641,0.12,3.175,0.392,4.604s0.686,2.68,1.241,3.752c0.556,1.07,1.259,1.918,2.109,2.542
		c0.85,0.624,1.836,0.939,2.961,0.945c0.877,0.005,1.756-0.258,2.636-0.793c0.88-0.534,1.604-1.36,2.174-2.482l0.605,0.375
		C142.951,242.992,142.118,243.92,141.115,244.453z"/>
	<path fill="#4C5556" d="M151.611,244.294l-1.451-23.828l0.742-0.046l1.45,23.829L151.611,244.294z"/>
	<path fill="#4C5556" d="M170.064,235.613l-8.331,1.048l-0.956,6.985l-0.736,0.093l3.14-24.456l1.272-0.161l8.903,22.942
		l-0.736,0.092L170.064,235.613z M161.817,235.971l7.995-1.006l-5.864-15.269l-0.134,0.017L161.817,235.971z"/>
	<path fill="#4C5556" d="M178.326,217.522l4.508,22.757l-0.728,0.145l-4.508-22.757l-4.63,0.917l-0.132-0.661l9.99-1.979l0.13,0.662
		L178.326,217.522z"/>
	<path fill="#4C5556" d="M194.459,237.635l-5.943-23.122l0.719-0.184l5.943,23.12L194.459,237.635z"/>
	<path fill="#4C5556" d="M214.129,219.062c0.585,1.725,0.97,3.364,1.152,4.915c0.183,1.553,0.159,2.95-0.072,4.191
		c-0.231,1.242-0.668,2.299-1.311,3.169c-0.642,0.871-1.506,1.491-2.592,1.859c-1.085,0.368-2.149,0.403-3.188,0.103
		s-2.028-0.873-2.968-1.717c-0.94-0.844-1.809-1.937-2.609-3.281c-0.8-1.343-1.492-2.876-2.077-4.6
		c-0.585-1.725-0.979-3.359-1.184-4.905c-0.204-1.544-0.196-2.937,0.026-4.174s0.658-2.294,1.311-3.169
		c0.653-0.875,1.543-1.502,2.671-1.886c1.085-0.368,2.149-0.403,3.188-0.103s2.029,0.873,2.968,1.717
		c0.94,0.844,1.809,1.938,2.609,3.281C212.852,215.805,213.544,217.338,214.129,219.062z M213.427,219.3
		c-0.527-1.553-1.155-2.966-1.884-4.238c-0.728-1.271-1.517-2.321-2.367-3.149c-0.85-0.827-1.758-1.403-2.724-1.727
		c-0.965-0.326-1.948-0.319-2.948,0.021c-1.043,0.353-1.848,0.953-2.416,1.799c-0.568,0.845-0.938,1.854-1.109,3.028
		c-0.172,1.175-0.149,2.485,0.069,3.929c0.218,1.446,0.59,2.946,1.118,4.5c0.527,1.553,1.142,2.965,1.846,4.234
		c0.703,1.269,1.483,2.322,2.337,3.159c0.854,0.837,1.763,1.419,2.729,1.745c0.965,0.325,1.968,0.311,3.011-0.044
		c1.022-0.347,1.817-0.941,2.385-1.788c0.568-0.845,0.935-1.86,1.104-3.045c0.167-1.184,0.15-2.495-0.054-3.934
		C214.32,222.351,213.954,220.855,213.427,219.3z"/>
	<path fill="#4C5556" d="M236.951,222.152l-18.713-16.723l-0.061,0.029l9.577,20.906l-0.674,0.31l-9.943-21.704l1.105-0.507
		l18.668,16.707l0.061-0.029l-9.564-20.876l0.674-0.31l9.943,21.706L236.951,222.152z"/>
</g>
</svg>
