<?xml version="1.0" encoding="utf-8"?>
<!-- Generator: Adobe Illustrator 18.1.0, SVG Export Plug-In . SVG Version: 6.00 Build 0)  -->
<!DOCTYPE svg PUBLIC "-//W3C//DTD SVG 1.1//EN" "http://www.w3.org/Graphics/SVG/1.1/DTD/svg11.dtd">
<svg version="1.1" id="Layer_1" xmlns="http://www.w3.org/2000/svg" xmlns:xlink="http://www.w3.org/1999/xlink" x="0px" y="0px"
	 viewBox="0 0 1920 1028" enable-background="new 0 0 1920 1028" xml:space="preserve">
<polyline fill="none" stroke="#333333" stroke-width="14" stroke-miterlimit="10" points="183,184 183,838 1744,838 "/>
<text transform="matrix(1 0 0 1 251.625 890.5685)" font-family="Lato" font-weight="300" font-size="25">2005</text>
<text transform="matrix(1 0 0 1 403.1249 890.5685)" font-family="Lato" font-weight="300" font-size="25">2006</text>
<text transform="matrix(1 0 0 1 554.6249 890.5685)" font-family="Lato" font-weight="300" font-size="25">2007</text>
<text transform="matrix(1 0 0 1 706.1249 890.5685)" font-family="Lato" font-weight="300" font-size="25">2008</text>
<text transform="matrix(1 0 0 1 857.6249 890.5685)" font-family="Lato" font-weight="300" font-size="25">2009</text>
<text transform="matrix(1 0 0 1 1009.1249 890.5685)" font-family="Lato" font-weight="300" font-size="25">2010</text>
<text transform="matrix(1 0 0 1 1160.625 890.5685)" font-family="Lato" font-weight="300" font-size="25">2011</text>
<text transform="matrix(1 0 0 1 1312.125 890.5685)" font-family="Lato" font-weight="300" font-size="25">2012</text>
<text transform="matrix(1 0 0 1 1463.625 890.5685)" font-family="Lato" font-weight="300" font-size="25">2013</text>
<text transform="matrix(1 0 0 1 1615.125 890.5685)" font-family="Lato" font-weight="300" font-size="25">2014</text>
<text transform="matrix(1 0 0 1 139.1295 718.0065)" font-family="Lato" font-weight="300" font-size="25">2</text>
<text transform="matrix(1 0 0 1 139.1295 589.0129)" font-family="Lato" font-weight="300" font-size="25">4</text>
<text transform="matrix(1 0 0 1 139.1295 847.0002)" font-family="Lato" font-weight="300" font-size="25">0</text>
<text transform="matrix(1 0 0 1 139.1295 460.0193)" font-family="Lato" font-weight="300" font-size="25">6</text>
<text transform="matrix(1 0 0 1 139.1295 331.0258)" font-family="Lato" font-weight="300" font-size="25">8</text>
<text transform="matrix(1 0 0 1 124.6295 202.0322)" font-family="Lato" font-weight="300" font-size="25">10</text>

<text transform="matrix(1 0 0 1 922 972)" fill="#EF5000" font-family="Lato" font-weight="700" font-size="30">YEAR</text>
<text transform="matrix(4.489659e-11 -1 1 4.489659e-11 86.5751 782.5)" fill="#EF5000" font-family="Lato" font-weight="700" font-size="30">TOTAL EXPENDITURE IN BILLION USD</text>
</svg>
