<?xml version="1.0" standalone="no"?>
<!DOCTYPE svg PUBLIC "-//W3C//DTD SVG 1.1//EN" "http://www.w3.org/Graphics/SVG/1.1/DTD/svg11.dtd" >
<svg xmlns="http://www.w3.org/2000/svg">
<metadata>Generated by IcoMoon</metadata>
<defs>
<font id="icomoon" horiz-adv-x="1024">
<font-face units-per-em="1024" ascent="960" descent="-64" />
<missing-glyph horiz-adv-x="1024" />
<glyph unicode="&#x20;" d="" horiz-adv-x="512" />
<glyph unicode="&#xe600;" d="M480 704v-640c-32 32-96 96-240 96-92.8 0-163.2-19.2-198.4-28.8-3.2-3.2-6.4-3.2-9.6-3.2-6.4 0-12.8 3.2-19.2 6.4-6.4 6.4-12.8 16-12.8 25.6v576c0 9.6 3.2 16 9.6 22.4 44.8 41.6 144 73.6 230.4 73.6 118.4 0 185.6-64 224-99.2 3.2-3.2 3.2-3.2 6.4-6.4 6.4-6.4 9.6-12.8 9.6-22.4zM544 704v-640c32 32 96 96 240 96 92.8 0 163.2-19.2 198.4-28.8 3.2 0 6.4-3.2 9.6-3.2 6.4 0 12.8 3.2 19.2 6.4 9.6 6.4 12.8 16 12.8 25.6v576c0 9.6-3.2 16-9.6 22.4-44.8 41.6-144 73.6-230.4 73.6-118.4 0-185.6-64-224-99.2-3.2-3.2-3.2-3.2-6.4-6.4-6.4-6.4-9.6-12.8-9.6-22.4z" />
<glyph unicode="&#xe601;" d="M64 640v128c0 35.2 28.8 64 64 64h64v64c0 35.2 28.8 64 64 64s64-28.8 64-64v-64h384v64c0 35.2 28.8 64 64 64s64-28.8 64-64v-64h64c35.2 0 64-28.8 64-64v-128h-896zM64 576v-576c0-35.2 28.8-64 64-64h768c35.2 0 64 28.8 64 64v576h-896z" />
<glyph unicode="&#xe602;" d="M0 448c0 281.6 230.4 512 512 512s512-230.4 512-512-230.4-512-512-512c-281.6 0-512 230.4-512 512zM758.4 284.8c19.2 28.8 12.8 70.4-19.2 89.6l-163.2 108.8v284.8c0 35.2-28.8 64-64 64s-64-28.8-64-64v-320c0-22.4 9.6-41.6 28.8-54.4l192-128c9.6-6.4 22.4-9.6 35.2-9.6 19.2 0 41.6 9.6 54.4 28.8z" />
<glyph unicode="&#xe603;" d="M640 960c16 0 32-6.4 44.8-19.2l192-192c12.8-12.8 19.2-28.8 19.2-44.8h-256v256zM576 640v0 320h-384c-35.2 0-64-28.8-64-64v-896c0-35.2 28.8-64 64-64h640c35.2 0 64 28.8 64 64v640h-320z" />
<glyph unicode="&#xe604;" d="M556.8-44.8l448 448c12.8 12.8 19.2 28.8 19.2 44.8 0 9.6 0 16-6.4 25.6-9.6 22.4-32 38.4-57.6 38.4h-192v384c0 35.2-28.8 64-64 64h-384c-35.2 0-64-28.8-64-64v-384h-192c-25.6 0-48-16-57.6-38.4-6.4-9.6-6.4-16-6.4-25.6 0-16 6.4-32 19.2-44.8l448-448c25.6-25.6 64-25.6 89.6 0z" />
<glyph unicode="&#xe605;" d="M960 704h-473.6l-44.8 92.8c-12.8 22.4-32 35.2-57.6 35.2h-320c-35.2 0-64-28.8-64-64v-640c0-35.2 28.8-64 64-64h896c35.2 0 64 28.8 64 64v512c0 35.2-28.8 64-64 64z" />
<glyph unicode="&#xe606;" d="M944 816c-51.2 51.2-118.4 80-192 80s-140.8-28.8-192-80c-19.2-19.2-35.2-41.6-48-64-12.8 22.4-28.8 44.8-48 64-51.2 51.2-118.4 80-192 80s-140.8-28.8-192-80c-51.2-51.2-80-118.4-80-192s28.8-140.8 80-192l384-412.8c12.8-12.8 28.8-19.2 48-19.2s35.2 6.4 48 19.2l384 412.8c51.2 51.2 80 118.4 80 192s-28.8 140.8-80 192z" />
<glyph unicode="&#xe607;" d="M998.4 627.2l-448 320c-12.8 9.6-25.6 12.8-38.4 12.8s-25.6-3.2-38.4-12.8l-448-320c-16-9.6-25.6-32-25.6-51.2v-576c0-35.2 28.8-64 64-64h256v384c0 35.2 28.8 64 64 64h256c35.2 0 64-28.8 64-64v-384h256c35.2 0 64 28.8 64 64v576c0 19.2-9.6 41.6-25.6 51.2z" />
<glyph unicode="&#xe608;" d="M1024 768v-640c0-35.2-28.8-64-64-64h-896c-35.2 0-64 28.8-64 64v640c0 35.2 28.8 64 64 64h896c35.2 0 64-28.8 64-64zM700.8 236.8l-128 256c-3.2 9.6-12.8 16-22.4 16-3.2 0-3.2 0-6.4 0-9.6 0-16-3.2-22.4-9.6l-35.2-35.2-105.6 160c-9.6 9.6-19.2 16-28.8 16 0 0 0 0-3.2 0-12.8 0-22.4-6.4-25.6-19.2l-192-384c-3.2-3.2-3.2-6.4-3.2-12.8s3.2-12.8 3.2-16c6.4-9.6 19.2-16 28.8-16h512c9.6 0 22.4 6.4 28.8 16 3.2 3.2 3.2 9.6 3.2 16s0 9.6-3.2 12.8zM640 576c0-70.4 57.6-128 128-128s128 57.6 128 128-57.6 128-128 128-128-57.6-128-128z" />
<glyph unicode="&#xe609;" d="M19.2 403.2l448-448c12.8-12.8 28.8-19.2 44.8-19.2 9.6 0 16 0 25.6 6.4 22.4 9.6 38.4 32 38.4 57.6v192h384c35.2 0 64 28.8 64 64v384c0 35.2-28.8 64-64 64h-384v192c0 25.6-16 48-38.4 57.6-9.6 3.2-16 6.4-25.6 6.4-16 0-32-6.4-44.8-19.2l-448-448c-25.6-25.6-25.6-64 0-89.6z" />
<glyph unicode="&#xe60a;" d="M512-64c-281.6 0-512 230.4-512 512s230.4 512 512 512 512-230.4 512-512-230.4-512-512-512zM576 160c25.6 0 48 9.6 67.2 28.8s28.8 44.8 28.8 67.2-9.6 48-28.8 67.2l-124.8 124.8 124.8 124.8c19.2 19.2 28.8 44.8 28.8 67.2s-9.6 48-28.8 67.2c-19.2 19.2-41.6 28.8-67.2 28.8s-48-9.6-67.2-28.8l-192-192c-19.2-19.2-28.8-41.6-28.8-67.2s9.6-48 28.8-67.2l192-192c19.2-19.2 41.6-28.8 67.2-28.8z" />
<glyph unicode="&#xe60b;" d="M524.8 332.8l-204.8-204.8-128 128 204.8 204.8-64 64c-12.8 12.8-28.8 19.2-44.8 19.2s-32-6.4-44.8-19.2l-224-224c-12.8-12.8-19.2-28.8-19.2-44.8s6.4-32 19.2-44.8l256-256c12.8-12.8 28.8-19.2 44.8-19.2s32 6.4 44.8 19.2l224 224c12.8 12.8 19.2 28.8 19.2 44.8s-6.4 32-19.2 44.8l-64 64zM1004.8 684.8l-256 256c-12.8 12.8-28.8 19.2-44.8 19.2s-32-6.4-44.8-19.2l-224-224c-12.8-12.8-19.2-28.8-19.2-44.8s6.4-32 19.2-44.8l64-64 204.8 204.8 128-128-204.8-204.8 64-64c12.8-12.8 28.8-19.2 44.8-19.2s32 6.4 44.8 19.2l224 224c12.8 12.8 19.2 28.8 19.2 44.8s-6.4 32-19.2 44.8z" />
<glyph unicode="&#xe60c;" d="M896 576c0-278.4-326.4-608-339.2-620.8s-28.8-19.2-44.8-19.2-32 6.4-44.8 19.2c-12.8 12.8-339.2 342.4-339.2 620.8 0 211.2 172.8 384 384 384s384-172.8 384-384zM512 384c105.6 0 192 86.4 192 192s-86.4 192-192 192c-105.6 0-192-86.4-192-192s86.4-192 192-192z" />
<glyph unicode="&#xe60d;" d="M0 742.4v25.6c0 35.2 28.8 64 64 64h896c35.2 0 64-28.8 64-64v-25.6l-512-320-512 320zM528 358.4c-3.2-3.2-9.6-6.4-16-6.4s-12.8 3.2-16 6.4l-496 307.2v-537.6c0-35.2 28.8-64 64-64h896c35.2 0 64 28.8 64 64v537.6l-496-307.2z" />
<glyph unicode="&#xe60e;" d="M992 960h-640c-19.2 0-32-12.8-32-32v-566.4c-28.8 16-60.8 22.4-96 22.4-124.8 0-224-99.2-224-224s99.2-224 224-224 224 99.2 224 224v544h448v-342.4c-28.8 12.8-60.8 22.4-96 22.4-124.8 0-224-99.2-224-224s99.2-224 224-224 224 99.2 224 224v768c0 19.2-16 32-32 32z" />
<glyph unicode="&#xe60f;" d="M1024 704v-640c0-35.2-28.8-64-64-64h-896c-35.2 0-64 28.8-64 64v640c0 35.2 28.8 64 64 64h153.6l44.8 92.8c12.8 22.4 32 35.2 57.6 35.2h384c25.6 0 48-12.8 57.6-35.2l44.8-92.8h153.6c35.2 0 64-28.8 64-64zM512 128c140.8 0 256 115.2 256 256s-115.2 256-256 256-256-115.2-256-256 115.2-256 256-256z" />
<glyph unicode="&#xe610;" d="M832 960h-640c-35.2 0-64-28.8-64-64v-896c0-25.6 12.8-48 35.2-57.6 9.6-3.2 19.2-6.4 28.8-6.4 12.8 0 28.8 3.2 38.4 12.8l281.6 224 281.6-224c12.8-9.6 25.6-12.8 38.4-12.8 9.6 0 19.2 3.2 28.8 6.4 22.4 9.6 35.2 32 35.2 57.6v896c0 35.2-28.8 64-64 64z" />
<glyph unicode="&#xe611;" d="M1004.8 492.8l-448 448c-12.8 12.8-28.8 19.2-44.8 19.2-9.6 0-16-3.2-25.6-6.4-22.4-9.6-38.4-32-38.4-57.6v-192h-384c-35.2 0-64-28.8-64-64v-384c0-35.2 28.8-64 64-64h384v-192c0-25.6 16-48 38.4-57.6 9.6-6.4 16-6.4 25.6-6.4 16 0 32 6.4 44.8 19.2l448 448c25.6 25.6 25.6 64 0 89.6z" />
<glyph unicode="&#xe612;" d="M0 448c0 281.6 230.4 512 512 512s512-230.4 512-512-230.4-512-512-512-512 230.4-512 512zM515.2 188.8l192 192c19.2 19.2 28.8 44.8 28.8 67.2s-9.6 48-28.8 67.2l-192 192c-19.2 19.2-41.6 28.8-67.2 28.8s-48-9.6-67.2-28.8c-19.2-19.2-28.8-41.6-28.8-67.2s9.6-48 28.8-67.2l124.8-124.8-124.8-124.8c-19.2-19.2-28.8-41.6-28.8-67.2s9.6-48 28.8-67.2 41.6-28.8 67.2-28.8 48 9.6 67.2 28.8z" />
<glyph unicode="&#xe613;" d="M985.6-25.6c-25.6-25.6-57.6-38.4-89.6-38.4s-64 12.8-89.6 38.4l-201.6 201.6c-57.6-32-121.6-48-188.8-48-230.4 0-416 185.6-416 416s185.6 416 416 416 416-185.6 416-416c0-67.2-16-131.2-44.8-188.8l201.6-201.6c48-48 48-131.2-3.2-179.2zM416 320c124.8 0 224 99.2 224 224s-99.2 224-224 224-224-99.2-224-224 99.2-224 224-224z" />
<glyph unicode="&#xe614;" d="M860.8 953.6c-9.6 3.2-19.2 6.4-28.8 6.4-12.8 0-28.8-3.2-38.4-12.8l-304-243.2h-297.6c-35.2 0-64-28.8-64-64v-384c0-35.2 28.8-64 64-64h297.6l304-243.2c12.8-9.6 25.6-12.8 38.4-12.8 9.6 0 19.2 3.2 28.8 6.4 22.4 9.6 35.2 32 35.2 57.6v896c0 25.6-12.8 48-35.2 57.6z" />
<glyph unicode="&#xe615;" d="M672 896h-320c-195.2 0-352-156.8-352-352 0-172.8 124.8-316.8 288-345.6v-134.4c0-25.6 16-48 38.4-57.6 9.6-6.4 16-6.4 25.6-6.4 16 0 32 6.4 44.8 19.2l179.2 172.8h96c195.2 0 352 156.8 352 352s-156.8 352-352 352v0z" />
<glyph unicode="&#xe616;" d="M1020.8 563.2c-6.4 22.4-25.6 38.4-51.2 44.8l-272 41.6-128 272c-9.6 25.6-32 38.4-57.6 38.4s-48-12.8-57.6-35.2l-128-272-272-44.8c-22.4-3.2-44.8-19.2-51.2-44.8-3.2-6.4-3.2-12.8-3.2-19.2 0-16 6.4-32 19.2-44.8l198.4-198.4-57.6-288c-6.4-25.6 6.4-48 25.6-64 12.8-9.6 25.6-12.8 38.4-12.8 9.6 0 22.4 3.2 32 9.6l256 144 256-144c9.6-6.4 19.2-9.6 32-9.6s25.6 3.2 38.4 12.8c19.2 16 28.8 38.4 25.6 64l-57.6 288 198.4 198.4c12.8 12.8 19.2 28.8 19.2 44.8 0 6.4 0 12.8-3.2 19.2z" />
<glyph unicode="&#xe617;" d="M1024 800v-352c0-16-6.4-32-19.2-44.8l-448-448c-12.8-12.8-28.8-19.2-44.8-19.2s-32 6.4-44.8 19.2l-448 448c-25.6 25.6-25.6 64 0 89.6l448 448c12.8 12.8 28.8 19.2 44.8 19.2h352c89.6 0 160-70.4 160-160zM800 800c0-35.2 28.8-64 64-64s64 28.8 64 64-28.8 64-64 64-64-28.8-64-64z" />
<glyph unicode="&#xe618;" d="M960 768v-768c0-35.2-28.8-64-64-64h-768c-35.2 0-64 28.8-64 64v768c0 35.2 28.8 64 64 64h64v64c0 35.2 28.8 64 64 64s64-28.8 64-64v-64h128v64c0 35.2 28.8 64 64 64s64-28.8 64-64v-64h128v64c0 35.2 28.8 64 64 64s64-28.8 64-64v-64h64c35.2 0 64-28.8 64-64zM832 576h-640v-64h640v64zM832 384h-640v-64h640v64zM832 192h-640v-64h640v64z" />
<glyph unicode="&#xe619;" d="M467.2 940.8l-448-448c-12.8-12.8-19.2-28.8-19.2-44.8 0-9.6 3.2-16 6.4-25.6 9.6-22.4 32-38.4 57.6-38.4h192v-384c0-35.2 28.8-64 64-64h384c35.2 0 64 28.8 64 64v384h192c25.6 0 48 16 57.6 38.4 3.2 6.4 6.4 16 6.4 25.6 0 16-6.4 32-19.2 44.8l-448 448c-25.6 25.6-64 25.6-89.6 0z" />
<glyph unicode="&#xe61a;" d="M512-64c-281.6 0-512 230.4-512 512s230.4 512 512 512 512-230.4 512-512-230.4-512-512-512zM771.2 451.2l-192 192c-19.2 19.2-41.6 28.8-67.2 28.8s-48-9.6-67.2-28.8l-192-192c-19.2-19.2-28.8-41.6-28.8-67.2s9.6-48 28.8-67.2c19.2-19.2 41.6-28.8 67.2-28.8s48 9.6 67.2 28.8l124.8 124.8 124.8-124.8c19.2-19.2 44.8-28.8 67.2-28.8s48 9.6 67.2 28.8c19.2 19.2 28.8 44.8 28.8 67.2s-9.6 48-28.8 67.2z" />
<glyph unicode="&#xe61b;" d="M995.2 694.4c-12.8 6.4-22.4 9.6-35.2 9.6-9.6 0-19.2-3.2-28.8-6.4l-163.2-83.2v153.6c0 35.2-28.8 64-64 64h-640c-35.2 0-64-28.8-64-64v-640c0-35.2 28.8-64 64-64h640c35.2 0 64 28.8 64 64v153.6l163.2-83.2c9.6-3.2 19.2-6.4 28.8-6.4 12.8 0 22.4 3.2 35.2 9.6 19.2 12.8 28.8 32 28.8 54.4v384c0 22.4-12.8 41.6-28.8 54.4z" />
</font>
</defs>
</svg>
